<?xml version="1.0" encoding="UTF-8"?>
<svg width="50px" height="30px" viewBox="0 0 50 30" version="1.1" xmlns="http://www.w3.org/2000/svg" xmlns:xlink="http://www.w3.org/1999/xlink">
    <!-- Generator: Sketch 49.3 (51167) - http://www.bohemiancoding.com/sketch -->
    <title>icon_payment_dinersclub_blue</title>
    <desc>Created with Sketch.</desc>
    <defs></defs>
    <g id="Stylesheets---FrontEnd" stroke="none" stroke-width="1" fill="none" fill-rule="evenodd">
        <g id="Payment-Cards" transform="translate(-92.000000, -274.000000)">
            <g id="Payment/DinersClub/Blue" transform="translate(92.000000, 274.000000)">
                <g id="DinersClub-dark">
                    <rect id="Rectangle" fill="#2E556D" x="0" y="0" width="50" height="30" rx="3"></rect>
                    <path d="M9.77393239,17.9915209 C9.77393239,17.3881169 9.45868631,17.4277818 9.15712255,17.4214244 L9.15712255,17.2470094 C9.4186068,17.2597243 9.6867249,17.2597243 9.94890018,17.2597243 C10.2305624,17.2597243 10.6129762,17.2470094 11.1098239,17.2470094 C12.8473398,17.2470094 13.793769,18.4072421 13.793769,19.5953923 C13.793769,20.2602975 13.4045832,21.9306457 11.0291121,21.9306457 C10.6871924,21.9306457 10.3713935,21.917378 10.0561474,21.917378 C9.75444545,21.917378 9.45868631,21.9235972 9.15712255,21.9306457 L9.15712255,21.7560925 C9.5592997,21.7154602 9.75444545,21.7023307 9.77393239,21.2461153 L9.77393239,17.9915209 L9.77393239,17.9915209 Z M10.4315128,21.1384534 C10.4315128,21.6553409 10.8009353,21.7154602 11.1295873,21.7154602 C12.5793599,21.7154602 13.0550622,20.6219806 13.0550622,19.6223423 C13.0550622,18.3675772 12.2500169,17.4619185 10.9551723,17.4619185 C10.6794529,17.4619185 10.5525805,17.4815437 10.4315128,17.4887303 L10.4315128,21.1384534 L10.4315128,21.1384534 Z" id="Fill-5" fill="#FFFFFF"></path>
                    <path d="M14.0288561,21.7560925 L14.1560049,21.7560925 C14.3438257,21.7560925 14.4781612,21.7560925 14.4781612,21.5341349 L14.4781612,19.7159072 C14.4781612,19.4211155 14.377686,19.380345 14.1290549,19.2465623 L14.1290549,19.1394533 C14.4444391,19.0446445 14.8204955,18.9180486 14.8470309,18.8978706 C14.8942971,18.8709206 14.933962,18.8637339 14.9680987,18.8637339 C15.0009915,18.8637339 15.014812,18.9040898 15.014812,18.9582663 L15.014812,21.5341349 C15.014812,21.7560925 15.1626916,21.7560925 15.3507889,21.7560925 L15.4643936,21.7560925 L15.4643936,21.9306457 C15.2362168,21.9306457 15.0009915,21.917378 14.760238,21.917378 C14.5186553,21.917378 14.2769344,21.9235972 14.0288561,21.9306457 L14.0288561,21.7560925 L14.0288561,21.7560925 Z M14.7466939,17.8307882 C14.5718643,17.8307882 14.4179037,17.6697791 14.4179037,17.4953642 C14.4179037,17.3273066 14.5791892,17.172655 14.7466939,17.172655 C14.9208325,17.172655 15.0756223,17.3140389 15.0756223,17.4953642 C15.0756223,17.6768276 14.9276045,17.8307882 14.7466939,17.8307882 L14.7466939,17.8307882 Z" id="Fill-6" fill="#FFFFFF"></path>
                    <path d="M16.1020724,19.7562632 C16.1020724,19.5084612 16.0279944,19.4414317 15.7131629,19.3137301 L15.7131629,19.1863049 C16.0011826,19.0924635 16.2760727,19.0048414 16.5985055,18.8637339 C16.6188217,18.8637339 16.6383086,18.8771398 16.6383086,18.9307635 L16.6383086,19.3670773 C17.0214134,19.0924635 17.3502036,18.8637339 17.8004762,18.8637339 C18.3700198,18.8637339 18.5712466,19.2798698 18.5712466,19.8032529 L18.5712466,21.5341349 C18.5712466,21.7560925 18.7192644,21.7560925 18.9069471,21.7560925 L19.0280148,21.7560925 L19.0280148,21.9306457 C18.7923749,21.9306457 18.5578407,21.917378 18.3165344,21.917378 C18.0748135,21.917378 17.8330926,21.9235972 17.5915099,21.9306457 L17.5915099,21.7560925 L17.7125777,21.7560925 C17.9005367,21.7560925 18.0341812,21.7560925 18.0341812,21.5341349 L18.0341812,19.7970337 C18.0341812,19.4140671 17.8004762,19.2263844 17.4175095,19.2263844 C17.2026004,19.2263844 16.8604044,19.4005229 16.6383086,19.5488171 L16.6383086,21.5341349 C16.6383086,21.7560925 16.7866028,21.7560925 16.9745619,21.7560925 L17.0950768,21.7560925 L17.0950768,21.9306457 C16.8604044,21.9306457 16.6254555,21.917378 16.3834582,21.917378 C16.1424283,21.917378 15.9005692,21.9235972 15.6592629,21.9306457 L15.6592629,21.7560925 L15.7803307,21.7560925 C15.9680133,21.7560925 16.1020724,21.7560925 16.1020724,21.5341349 L16.1020724,19.7562632" id="Fill-7" fill="#FFFFFF"></path>
                    <path d="M19.537992,20.0788341 C19.5243097,20.1392298 19.5243097,20.239705 19.537992,20.46802 C19.5775187,21.1052842 19.9877118,21.6283909 20.523948,21.6283909 C20.8935087,21.6283909 21.1822194,21.4270259 21.4300213,21.179224 L21.5237244,21.2732035 C21.214974,21.6824291 20.8326984,22.0315355 20.2829181,22.0315355 C19.2156975,22.0315355 19.0010648,20.9976223 19.0010648,20.5684951 C19.0010648,19.2531962 19.8865456,18.8637339 20.3557522,18.8637339 C20.8998661,18.8637339 21.4840595,19.20593 21.4902788,19.9174104 C21.4902788,19.958181 21.4902788,19.9979841 21.4840595,20.03834 L21.4233875,20.0788341 L19.537992,20.0788341 L19.537992,20.0788341 Z M20.7261422,19.863925 C20.8935087,19.863925 20.9131338,19.7765793 20.9131338,19.6957293 C20.9131338,19.354086 20.7052732,19.0789194 20.329355,19.0789194 C19.9204058,19.0789194 19.6384672,19.380345 19.5580318,19.863925 L20.7261422,19.863925 L20.7261422,19.863925 Z" id="Fill-8" fill="#FFFFFF"></path>
                    <path d="M21.6449304,21.7560925 L21.8262556,21.7560925 C22.0133855,21.7560925 22.1477209,21.7560925 22.1477209,21.5341349 L22.1477209,19.6490159 C22.1477209,19.4414317 21.8996426,19.4005229 21.798891,19.3468993 L21.798891,19.2465623 C22.2886903,19.0384253 22.557223,18.8637339 22.6185861,18.8637339 C22.6578364,18.8637339 22.6780143,18.8839119 22.6780143,18.951356 L22.6780143,19.5553128 L22.6921113,19.5553128 C22.8593396,19.2936903 23.1416928,18.8637339 23.5507802,18.8637339 C23.7184231,18.8637339 23.9329176,18.9777532 23.9329176,19.2194741 C23.9329176,19.4005229 23.8060452,19.5623612 23.6182243,19.5623612 C23.4095345,19.5623612 23.4095345,19.4005229 23.1744474,19.4005229 C23.0605663,19.4005229 22.6847864,19.5553128 22.6847864,19.958181 L22.6847864,21.5341349 C22.6847864,21.7560925 22.8188454,21.7560925 23.0068045,21.7560925 L23.3821699,21.7560925 L23.3821699,21.9306457 C23.0131619,21.9235972 22.732329,21.917378 22.4434801,21.917378 C22.1683135,21.917378 21.8863749,21.9235972 21.6449304,21.9306457 L21.6449304,21.7560925" id="Fill-9" fill="#FFFFFF"></path>
                    <path d="M24.2279857,20.9976223 C24.3154696,21.4404318 24.5833113,21.8167646 25.074078,21.8167646 C25.4693449,21.8167646 25.6168098,21.5749055 25.6168098,21.340233 C25.6168098,20.5480408 24.1544605,20.8033058 24.1544605,19.7230939 C24.1544605,19.3468993 24.4565771,18.8638721 25.1947311,18.8638721 C25.4090874,18.8638721 25.6975217,18.9246824 25.9590059,19.0590179 L26.0061339,19.7428572 L25.8518969,19.7428572 C25.7848674,19.3203639 25.5503331,19.0789194 25.1203767,19.0789194 C24.8519822,19.0789194 24.59727,19.2330182 24.59727,19.5215907 C24.59727,20.3071491 26.1535989,20.0651518 26.1535989,21.1186901 C26.1535989,21.5612231 25.7984115,22.0315355 24.9995854,22.0315355 C24.7314673,22.0315355 24.4155302,21.9374177 24.1814106,21.8032205 L24.1071944,21.0314826 L24.2279857,20.9976223" id="Fill-10" fill="#FFFFFF"></path>
                    <path d="M32.2126533,18.4611422 L32.0452868,18.4611422 C31.9175852,17.6768276 31.3606182,17.3610287 30.6096111,17.3610287 C29.837044,17.3610287 28.7168908,17.8773634 28.7168908,19.4877304 C28.7168908,20.8436617 29.683498,21.8167646 30.716582,21.8167646 C31.3802434,21.8167646 31.9316821,21.3602728 32.065603,20.655288 L32.2199782,20.6953675 L32.065603,21.6753806 C31.7838026,21.850072 31.0253324,22.0315355 30.5819701,22.0315355 C29.0125118,22.0315355 28.0195074,21.0180767 28.0195074,19.5084612 C28.0195074,18.1324902 29.2474606,17.1458432 30.5626214,17.1458432 C31.105906,17.1458432 31.6291509,17.320811 32.1459002,17.5021362 L32.2126533,18.4611422" id="Fill-11" fill="#FFFFFF"></path>
                    <path d="M32.454927,21.7560925 L32.5819376,21.7560925 C32.7704495,21.7560925 32.9043704,21.7560925 32.9043704,21.5341349 L32.9043704,17.797619 C32.9043704,17.3610287 32.8038952,17.347761 32.5486302,17.2738212 L32.5486302,17.1662976 C32.8168865,17.0792283 33.0989633,16.9587134 33.240209,16.8775869 C33.3130432,16.837922 33.3672196,16.8036471 33.386983,16.8036471 C33.4280299,16.8036471 33.4412976,16.8444177 33.4412976,16.8983177 L33.4412976,21.5341349 C33.4412976,21.7560925 33.589039,21.7560925 33.7767216,21.7560925 L33.8903263,21.7560925 L33.8903263,21.9306457 C33.6628406,21.9306457 33.4280299,21.917378 33.186309,21.917378 C32.9448645,21.917378 32.7035582,21.9235972 32.454927,21.9306457 L32.454927,21.7560925" id="Fill-12" fill="#FFFFFF"></path>
                    <path d="M36.763198,21.5612231 C36.763198,21.6824291 36.8365849,21.6887866 36.9503278,21.6887866 C37.0313161,21.6887866 37.1315148,21.6824291 37.2194133,21.6824291 L37.2194133,21.8236748 C36.9307027,21.8502102 36.3802313,21.9911795 36.2525297,22.0315355 L36.2190841,22.0110811 L36.2190841,21.46752 C35.8169069,21.796172 35.5078801,22.0315355 35.0307957,22.0315355 C34.6685598,22.0315355 34.2930563,21.796172 34.2930563,21.2332622 L34.2930563,19.5149569 C34.2930563,19.3402655 34.2663827,19.1724844 33.8911556,19.1394533 L33.8911556,19.0116135 C34.1328765,19.0049796 34.6685598,18.9649001 34.7560437,18.9649001 C34.8305363,18.9649001 34.8305363,19.0116135 34.8305363,19.1594931 L34.8305363,20.8905133 C34.8305363,21.0920165 34.8305363,21.6684704 35.4141769,21.6684704 C35.6419391,21.6684704 35.9439175,21.49447 36.2255797,21.2599358 L36.2255797,19.454423 C36.2255797,19.3203639 35.9036998,19.2465623 35.6625317,19.1798092 L35.6625317,19.0591561 C36.2657974,19.0182473 36.641992,18.9649001 36.7090215,18.9649001 C36.763198,18.9649001 36.763198,19.0116135 36.763198,19.0856915 L36.763198,21.5612231" id="Fill-13" fill="#FFFFFF"></path>
                    <path d="M38.098122,19.3468993 C38.3663784,19.1192754 38.7288906,18.8637339 39.0978985,18.8637339 C39.8764084,18.8637339 40.3461679,19.5421833 40.3461679,20.273427 C40.3461679,21.1521357 39.7017171,22.0315355 38.7417437,22.0315355 C38.2457252,22.0315355 37.9839645,21.8699736 37.809135,21.796172 L37.608461,21.9505472 L37.4677681,21.877022 C37.5277492,21.4812023 37.5616094,21.0920165 37.5616094,20.6825144 L37.5616094,17.797619 C37.5616094,17.3610287 37.4605814,17.347761 37.2055928,17.2738212 L37.2055928,17.1662976 C37.4742637,17.0792283 37.7557877,16.9587134 37.8966189,16.8775869 C37.9706968,16.837922 38.0241823,16.8036471 38.0446366,16.8036471 C38.0845779,16.8036471 38.098122,16.8445559 38.098122,16.8983177 L38.098122,19.3468993 L38.098122,19.3468993 Z M38.098122,21.1721755 C38.098122,21.4270259 38.339843,21.8568441 38.7892863,21.8568441 C39.5071241,21.8568441 39.8089643,21.1521357 39.8089643,20.5546746 C39.8089643,19.8302029 39.2593222,19.2263844 38.7360773,19.2263844 C38.4867551,19.2263844 38.2791709,19.3876699 38.098122,19.5421833 L38.098122,21.1721755 L38.098122,21.1721755 Z" id="Fill-14" fill="#FFFFFF"></path>
                    <path d="M9.14965947,25.8321786 L9.2009336,25.8321786 C9.33222855,25.8321786 9.47098657,25.814212 9.47098657,25.6241798 L9.47098657,23.7114198 C9.47098657,23.5211112 9.33222855,23.5030063 9.2009336,23.5030063 L9.14965947,23.5030063 L9.14965947,23.3932714 C9.29201083,23.3932714 9.51106608,23.4077829 9.69045644,23.4077829 C9.87288732,23.4077829 10.0916662,23.3932714 10.263317,23.3932714 L10.263317,23.5030063 L10.2117665,23.5030063 C10.0810244,23.5030063 9.94198992,23.5211112 9.94198992,23.7114198 L9.94198992,25.6241798 C9.94198992,25.814212 10.0810244,25.8321786 10.2117665,25.8321786 L10.263317,25.8321786 L10.263317,25.9419136 C10.088211,25.9419136 9.86860295,25.9278167 9.6867249,25.9278167 C9.50747275,25.9278167 9.29201083,25.9419136 9.14965947,25.9419136 L9.14965947,25.8321786" id="Fill-15" fill="#FFFFFF"></path>
                    <path d="M10.263317,25.9575308 C10.0866908,25.9575308 9.86818834,25.942881 9.68644849,25.942881 C9.50774916,25.942881 9.29297827,25.9575308 9.14965947,25.9575308 L9.13376587,25.9575308 L9.13376587,25.8164233 L9.20065719,25.8164233 C9.33319598,25.8132445 9.45371092,25.8026027 9.45481657,25.6241798 L9.45481657,23.7114198 C9.45371092,23.5327204 9.33319598,23.5211112 9.20065719,23.5187617 L9.13376587,23.5187617 L9.13376587,23.3773778 L9.14965947,23.3773778 C9.29297827,23.3773778 9.51189532,23.3916129 9.69045644,23.3916129 C9.87205808,23.3916129 10.0906987,23.3773778 10.263317,23.3773778 L10.2796252,23.3773778 L10.2796252,23.5187617 L10.2124575,23.5187617 C10.0797805,23.5211112 9.95857454,23.5327204 9.95788352,23.7114198 L9.95788352,25.6241798 C9.95857454,25.8026027 10.0797805,25.8132445 10.2124575,25.8164233 L10.2796252,25.8164233 L10.2796252,25.9575308 L10.263317,25.9575308 L10.263317,25.9575308 Z M10.2475616,25.9262964 L10.2476998,25.8486251 L10.2124575,25.8486251 C10.0818536,25.8486251 9.92664914,25.825683 9.92581991,25.6241798 L9.92581991,23.7114198 C9.92664914,23.5095019 10.0818536,23.4869745 10.2124575,23.4869745 L10.2475616,23.4869745 L10.2475616,23.4090268 C10.0790895,23.409165 9.86749731,23.4238147 9.69045644,23.4238147 C9.51700891,23.4238147 9.3070752,23.4101324 9.16569127,23.4090268 L9.16569127,23.4869745 L9.20065719,23.4869745 C9.3308465,23.4869745 9.48632735,23.5095019 9.48632735,23.7114198 L9.48632735,25.6241798 C9.48632735,25.825683 9.3308465,25.8486251 9.20065719,25.8486251 L9.16569127,25.8486251 L9.16569127,25.9262964 C9.3070752,25.9250525 9.51327737,25.9116466 9.68644849,25.9116466 C9.86431859,25.9116466 10.0753579,25.925329 10.2475616,25.9262964 L10.2475616,25.9262964 Z" id="Fill-16" fill="#FFFFFF"></path>
                    <path d="M12.7716033,25.2222791 L12.7789282,25.2150924 L12.7789282,23.846308 C12.7789282,23.5466791 12.5705147,23.5028681 12.4610562,23.5028681 L12.3806208,23.5028681 L12.3806208,23.3932714 C12.5525481,23.3932714 12.7204674,23.4077829 12.8918418,23.4077829 C13.0415181,23.4077829 13.1918854,23.3932714 13.3410088,23.3932714 L13.3410088,23.5028681 L13.2866941,23.5028681 C13.1328717,23.5028681 12.9612209,23.5320294 12.9612209,23.9665466 L12.9612209,25.6277731 C12.9612209,25.7557512 12.9648142,25.8834528 12.9827809,25.9967811 L12.8440228,25.9967811 L10.9640174,23.9006227 L10.9640174,25.4052628 C10.9640174,25.7231347 11.0257951,25.8321786 11.3069045,25.8321786 L11.3690969,25.8321786 L11.3690969,25.9419136 C11.2120958,25.9419136 11.0552329,25.9276784 10.8982317,25.9276784 C10.7343204,25.9276784 10.5661246,25.9419136 10.4016604,25.9419136 L10.4016604,25.8321786 L10.4529346,25.8321786 C10.7047445,25.8321786 10.7814483,25.6605278 10.7814483,25.3693294 L10.7814483,23.8309673 C10.7814483,23.6267 10.6129762,23.5028681 10.4493412,23.5028681 L10.4016604,23.5028681 L10.4016604,23.3932714 C10.5401421,23.3932714 10.6827698,23.4077829 10.8212514,23.4077829 C10.9311246,23.4077829 11.0369898,23.3932714 11.1464483,23.3932714 L12.7716033,25.2222791" id="Fill-17" fill="#FFFFFF"></path>
                    <path d="M12.9827809,26.0121218 L12.8324136,26.0070082 L10.9794964,23.9418078 L10.9794964,25.4052628 C10.983919,25.7227201 11.0321526,25.8129681 11.3070427,25.8164233 L11.3852669,25.8164233 L11.3852669,25.9575308 L11.3690969,25.9575308 C11.2111283,25.9575308 11.053989,25.942881 10.8982317,25.942881 C10.734735,25.942881 10.5669539,25.9575308 10.4015222,25.9575308 L10.3854904,25.9575308 L10.3854904,25.8164233 L10.4529346,25.8164233 C10.6942409,25.8150412 10.7632053,25.659975 10.7658312,25.3691912 L10.7658312,23.8315201 C10.7651401,23.6370654 10.6056513,23.5187617 10.4494794,23.5187617 L10.3854904,23.5187617 L10.3854904,23.3773778 L10.4015222,23.3773778 C10.5411095,23.3773778 10.6840137,23.3916129 10.820975,23.3916129 C10.9298807,23.3916129 11.0353313,23.3773778 11.1584721,23.3830442 L12.7630346,25.189248 L12.7630346,23.846308 C12.7612379,23.5563535 12.5674742,23.5211112 12.4611944,23.5187617 L12.364589,23.5187617 L12.364589,23.3773778 L12.380759,23.3773778 C12.5532391,23.3773778 12.7212966,23.3916129 12.8918418,23.3916129 C13.0404124,23.3916129 13.1900887,23.3773778 13.3410088,23.3773778 L13.3570406,23.3773778 L13.3570406,23.5187617 L13.2866941,23.5187617 C13.1359122,23.5226314 12.9812606,23.5358991 12.9768381,23.9665466 L12.9768381,25.6277731 C12.9768381,25.755613 12.980846,25.8830382 12.9983981,25.9938787 L13.001715,26.0121218 L12.9827809,26.0121218 L12.9827809,26.0121218 Z M12.8441611,25.9803346 L12.9649524,25.9803346 C12.9486442,25.8704615 12.9457419,25.7492555 12.9457419,25.6277731 L12.9457419,23.9665466 C12.9457419,23.5282979 13.1294166,23.4869745 13.2866941,23.4866981 L13.3251152,23.4866981 L13.3251152,23.4090268 C13.1812436,23.4101324 13.0370955,23.4234001 12.8918418,23.4234001 C12.7246135,23.4234001 12.5620842,23.4101324 12.3970672,23.4090268 L12.3966526,23.4866981 L12.4611944,23.4866981 C12.5734171,23.4869745 12.7946836,23.5368666 12.7946836,23.846308 L12.7898464,25.2265634 L12.7826597,25.2336119 L12.7702213,25.2453593 L11.1464483,23.4090268 C11.0379572,23.4090268 10.9323684,23.4234001 10.820975,23.4234001 C10.6871924,23.4234001 10.5500928,23.4101324 10.4176922,23.4090268 L10.4170012,23.4866981 L10.4494794,23.4866981 C10.6207157,23.4869745 10.7969273,23.6177166 10.7969273,23.8315201 L10.7969273,25.3691912 C10.7969273,25.661357 10.7155245,25.847934 10.4529346,25.8489015 L10.4176922,25.847934 L10.4176922,25.9262964 C10.575799,25.9250525 10.7387429,25.9116466 10.8982317,25.9116466 C11.0505339,25.9116466 11.2025596,25.9250525 11.3532033,25.9262964 L11.3532033,25.8489015 L11.3070427,25.8489015 C11.0197141,25.847934 10.9485384,25.7227201 10.948262,25.4052628 L10.948262,23.8597139 L12.8441611,25.9803346 L12.8441611,25.9803346 Z M12.7717415,25.2222791 L12.7832126,25.2117755 L12.7717415,25.2222791 L12.7717415,25.2222791 Z M12.7630346,25.2150924 L12.7630346,25.2137103 L12.7601323,25.2113609 L12.7630346,25.2150924 L12.7630346,25.2150924 Z" id="Fill-18" fill="#FFFFFF"></path>
                    <path d="M13.8881632,23.5758404 C13.6139641,23.5758404 13.6033223,23.6419025 13.548593,23.9080858 L13.4389963,23.9080858 C13.4533696,23.8058139 13.4714745,23.7036803 13.4828073,23.5978151 C13.4974571,23.4951286 13.5047819,23.3932714 13.5047819,23.2876826 L13.5922658,23.2876826 C13.6217035,23.3972793 13.712919,23.3932714 13.8120121,23.3932714 L15.6951963,23.3932714 C15.7942894,23.3932714 15.8853666,23.389678 15.8928297,23.2800813 L15.9800372,23.2950075 C15.9659403,23.3932714 15.9510141,23.4919499 15.9403723,23.5907666 C15.9331856,23.6893069 15.9331856,23.7875708 15.9331856,23.8861111 L15.8234507,23.9267435 C15.8159876,23.7918552 15.7978827,23.5758404 15.5532595,23.5758404 L14.9544164,23.5758404 L14.9544164,25.5183146 C14.9544164,25.7999768 15.0823944,25.8321786 15.2573622,25.8321786 L15.3270176,25.8321786 L15.3270176,25.9419136 C15.184528,25.9419136 14.9288484,25.9278167 14.7320442,25.9278167 C14.5127125,25.9278167 14.2568947,25.9419136 14.1144051,25.9419136 L14.1144051,25.8321786 L14.1840605,25.8321786 C14.3852873,25.8321786 14.4870063,25.814212 14.4870063,25.5259159 L14.4870063,23.5758404 L13.8881632,23.5758404" id="Fill-19" fill="#FFFFFF"></path>
                    <path d="M15.327294,25.9575308 C15.1834224,25.9575308 14.9280192,25.9430192 14.7320442,25.9430192 C14.5129889,25.9430192 14.2575857,25.9575308 14.1144051,25.9575308 L14.0987879,25.9575308 L14.0987879,25.8164233 L14.1840605,25.8164233 C14.3852873,25.8117243 14.4661374,25.8090984 14.4706981,25.5259159 L14.4706981,23.5914576 L13.8881632,23.5914576 L13.8881632,23.5595322 L14.5023471,23.5595322 L14.5023471,25.5259159 C14.5023471,25.8190492 14.3841817,25.8486251 14.1840605,25.8489015 L14.1300223,25.8489015 L14.1300223,25.92602 C14.2740321,25.9250525 14.5200374,25.9116466 14.7320442,25.9116466 C14.9220763,25.9116466 15.1660085,25.9250525 15.3107094,25.92602 L15.3107094,25.8489015 L15.2573622,25.8489015 C15.0807359,25.8486251 14.938661,25.8052286 14.938661,25.5183146 L14.938661,23.5595322 L15.5532595,23.5595322 C15.7981591,23.5604997 15.8306374,23.7686367 15.8382386,23.9044924 L15.917292,23.8753311 C15.917292,23.7799695 15.9177066,23.6844697 15.9242023,23.5885553 C15.9349823,23.4941612 15.94825,23.4014255 15.9619323,23.3078606 L15.906512,23.2986008 C15.8895128,23.4048806 15.7865499,23.410547 15.6950581,23.409165 L13.7929398,23.409165 C13.7069762,23.4093032 13.6134112,23.405157 13.5805184,23.3032998 L13.5202609,23.3032998 C13.5197081,23.4041896 13.5127978,23.5021771 13.4989773,23.5994735 C13.4880591,23.6998105 13.4713363,23.7961395 13.4580686,23.8928832 L13.5360163,23.8928832 C13.5839735,23.638171 13.6152079,23.5559389 13.8881632,23.5595322 L13.8881632,23.5914576 C13.6176956,23.5968476 13.6236384,23.6420407 13.564072,23.9118173 L13.5614461,23.9242558 L13.4207532,23.9242558 L13.422688,23.9053217 C13.4376142,23.8034644 13.4561337,23.7009162 13.4667755,23.5949128 C13.4819781,23.4936083 13.4888883,23.3923039 13.4888883,23.2876826 L13.4888883,23.2715126 L13.6048425,23.2715126 L13.6076066,23.2829836 C13.6322071,23.3750283 13.6997895,23.3757193 13.7929398,23.3773778 L15.6950581,23.3773778 C15.7967771,23.3757193 15.8708551,23.3743373 15.8770743,23.2788375 L15.8783182,23.2615618 L15.8949028,23.2648787 L15.9981421,23.2811869 L15.9955162,23.297357 C15.9810046,23.3953444 15.9667695,23.4936083 15.9557131,23.5914576 C15.948941,23.6893069 15.948941,23.7874326 15.948941,23.8861111 L15.948941,23.8971676 L15.9382992,23.9014519 L15.8090773,23.9487181 L15.8082481,23.9275727 C15.7981591,23.7901967 15.7840622,23.5914576 15.5532595,23.5914576 L14.9704482,23.5914576 L14.9704482,25.5183146 C14.9740415,25.7936194 15.0832236,25.8129681 15.2573622,25.8164233 L15.342773,25.8164233 L15.342773,25.9575308 L15.327294,25.9575308" id="Fill-20" fill="#FFFFFF"></path>
                    <path d="M16.0966824,25.8321786 L16.1480947,25.8321786 C16.2791133,25.8321786 16.4182859,25.814212 16.4182859,25.6241798 L16.4182859,23.7114198 C16.4182859,23.5211112 16.2791133,23.5030063 16.1480947,23.5030063 L16.0966824,23.5030063 L16.0966824,23.3932714 C16.3186399,23.3932714 16.6992571,23.4077829 17.0053816,23.4077829 C17.3126118,23.4077829 17.6918469,23.3932714 17.9400634,23.3932714 C17.933706,23.5502725 17.9371611,23.7918552 17.9479411,23.9521732 L17.8379298,23.9811963 C17.8203777,23.7437598 17.7765667,23.5544186 17.3930472,23.5544186 L16.8861105,23.5544186 L16.8861105,24.5103841 L17.3197985,24.5103841 C17.5388537,24.5103841 17.5865345,24.3866904 17.6082327,24.1893334 L17.7176913,24.1893334 C17.7103664,24.3319611 17.7064966,24.4743125 17.7064966,24.6165257 C17.7064966,24.7555601 17.7103664,24.8941799 17.7176913,25.0326615 L17.6082327,25.054498 C17.5865345,24.8357191 17.5756163,24.6933677 17.3233918,24.6933677 L16.8861105,24.6933677 L16.8861105,25.5436062 C16.8861105,25.7813191 17.0970117,25.7813191 17.3308549,25.7813191 C17.7691036,25.7813191 17.9624527,25.7518814 18.0720494,25.3361602 L18.1739066,25.3613135 C18.1265023,25.5552154 18.0829676,25.7481499 18.050213,25.9419136 C17.8162316,25.9419136 17.3963641,25.9278167 17.0684032,25.9278167 C16.7390602,25.9278167 16.3049576,25.9419136 16.0966824,25.9419136 L16.0966824,25.8321786" id="Fill-21" fill="#FFFFFF"></path>
                    <path d="M18.0499366,25.9575308 C17.8156787,25.9575308 17.3955349,25.9423282 17.0679886,25.9423282 C16.7390602,25.9423282 16.3050958,25.9575308 16.0965442,25.9575308 L16.0812034,25.9575308 L16.0812034,25.8164233 L16.1479565,25.8164233 C16.2800807,25.814212 16.4003192,25.8026027 16.4019777,25.6241798 L16.4019777,23.7114198 C16.4003192,23.5329968 16.2800807,23.5211112 16.1479565,23.5187617 L16.0812034,23.5187617 L16.0812034,23.3773778 L16.0965442,23.3773778 C16.3196074,23.3773778 16.6993953,23.3916129 17.0053816,23.3916129 C17.3123354,23.3916129 17.6914323,23.3773778 17.9400634,23.3773778 L17.9562334,23.3773778 L17.9556806,23.3942388 C17.9533311,23.4488299 17.9518109,23.5137863 17.9518109,23.5824743 C17.9518109,23.7086556 17.9556806,23.8469991 17.9628673,23.9509294 L17.9635583,23.9639207 L17.9512581,23.9676522 L17.8228654,24.0012361 L17.8223126,23.9824402 C17.8007526,23.7455564 17.7689654,23.5732145 17.3930472,23.5696212 L16.9008985,23.5696212 L16.9006221,24.4943522 L17.3196603,24.4943522 C17.5301468,24.492141 17.5677386,24.3846173 17.5926155,24.1876749 L17.5934448,24.1730251 L17.7338613,24.1730251 L17.7335849,24.189748 C17.7265364,24.3323757 17.722252,24.4743125 17.722252,24.6165257 C17.722252,24.7545927 17.7265364,24.8932125 17.7335849,25.0319705 L17.7338613,25.0452382 L17.7205936,25.0482787 L17.5934448,25.0735703 L17.5926155,25.0564328 C17.567324,24.8335078 17.5656655,24.7113344 17.3233918,24.7087085 L16.9008985,24.7087085 L16.9008985,25.5436062 C16.9014513,25.7655637 17.0927273,25.7643199 17.3307167,25.7655637 C17.7703474,25.7629378 17.9464209,25.7413778 18.0564322,25.3318758 L18.0601638,25.3170878 L18.0755045,25.3195755 L18.1925643,25.3499807 L18.1892474,25.3650451 C18.141843,25.5582559 18.0983084,25.7513286 18.0652773,25.9445395 L18.0625132,25.9575308 L18.0499366,25.9575308 L18.0499366,25.9575308 Z M18.0363925,25.92602 C18.0683179,25.7413778 18.1099176,25.5570121 18.1546961,25.3731992 L18.0828294,25.3550943 C17.9735091,25.7634907 17.7616405,25.7999768 17.3307167,25.7972127 C17.100605,25.7972127 16.8706315,25.7972127 16.8693877,25.5436062 L16.8693877,24.6774741 L17.3233918,24.6774741 C17.5783804,24.6748482 17.6040866,24.8285324 17.6223297,25.0362549 L17.7011066,25.0200849 C17.6940582,24.885473 17.6904648,24.7503083 17.6904648,24.6165257 C17.6904648,24.4794261 17.6940582,24.3426029 17.7011066,24.2048123 L17.6223297,24.2048123 C17.6017371,24.3955355 17.5421706,24.5286271 17.3196603,24.5262777 L16.8693877,24.5262777 L16.8693877,23.5379722 L17.3930472,23.5379722 C17.7726969,23.5349317 17.8355803,23.7314595 17.8521649,23.9611566 L17.9308037,23.9397348 C17.9244462,23.8367719 17.9201619,23.7043713 17.9201619,23.5824743 C17.9201619,23.5200055 17.9218203,23.4607155 17.9238934,23.4090268 C17.6758151,23.4101324 17.3055633,23.4234001 17.0053816,23.4234001 C16.7053381,23.4234001 16.3360538,23.4101324 16.112576,23.4090268 L16.112576,23.4866981 L16.1479565,23.4866981 C16.2778694,23.4869745 16.4332121,23.5095019 16.4340413,23.7114198 L16.4340413,25.6241798 C16.4332121,25.825683 16.2778694,25.847934 16.1479565,25.8489015 L16.112576,25.8489015 L16.112576,25.92602 C16.3251356,25.925329 16.7472143,25.9116466 17.0679886,25.9116466 C17.3902831,25.9116466 17.801029,25.925329 18.0363925,25.92602 L18.0363925,25.92602 Z" id="Fill-22" fill="#FFFFFF"></path>
                    <path d="M18.6670228,23.7799695 C18.6670228,23.5137863 18.5208017,23.5028681 18.4074734,23.5028681 L18.3415496,23.5028681 L18.3415496,23.3932714 C18.4584712,23.3932714 18.6848513,23.4077829 18.9077763,23.4077829 C19.1264169,23.4077829 19.3019375,23.3932714 19.4954248,23.3932714 C19.9548189,23.3932714 20.3645974,23.5172414 20.3645974,24.0360638 C20.3645974,24.3644394 20.1454039,24.5649751 19.8571079,24.6788562 L20.4811044,25.6129852 C20.5836526,25.7674986 20.6560722,25.8107568 20.8354625,25.8321786 L20.8354625,25.9419136 C20.7146712,25.9419136 20.5978878,25.9278167 20.4777874,25.9278167 C20.3645974,25.9278167 20.2472611,25.9419136 20.1346239,25.9419136 C19.8532381,25.5733203 19.61207,25.179159 19.3749099,24.7586006 L19.1342946,24.7586006 L19.1342946,25.5404275 C19.1342946,25.8215368 19.2654514,25.8321786 19.4328179,25.8321786 L19.4990182,25.8321786 L19.4990182,25.9419136 C19.2904665,25.9419136 19.0795654,25.9278167 18.8710137,25.9278167 C18.6957695,25.9278167 18.5241186,25.9419136 18.3415496,25.9419136 L18.3415496,25.8321786 L18.4074734,25.8321786 C18.5430527,25.8321786 18.6670228,25.7704009 18.6670228,25.6355126 L18.6670228,23.7799695 L18.6670228,23.7799695 Z M19.1342946,24.626891 L19.3127175,24.626891 C19.6782703,24.626891 19.8750745,24.4885476 19.8750745,24.0574856 C19.8750745,23.7328416 19.6669375,23.5247045 19.3416024,23.5247045 C19.2320057,23.5247045 19.1852923,23.5358991 19.1342946,23.5394925 L19.1342946,24.626891 L19.1342946,24.626891 Z" id="Fill-23" fill="#FFFFFF"></path>
                    <path d="M20.8354625,25.9575308 C20.7130127,25.9575308 20.5969203,25.942881 20.47682,25.942881 C20.3655648,25.942881 20.2487814,25.9575308 20.1216326,25.9514497 C19.8414907,25.5838239 19.6014282,25.1918739 19.3656501,24.775047 L19.1499118,24.775047 L19.1499118,25.5397364 C19.1539198,25.8146266 19.2640693,25.8125535 19.4328179,25.8164233 L19.5147736,25.8164233 L19.5147736,25.9575308 L19.4986035,25.9575308 C19.2899137,25.9575308 19.0777687,25.942881 18.8708755,25.942881 C18.6964605,25.942881 18.5249479,25.9575308 18.3415496,25.9575308 L18.325656,25.9575308 L18.325656,25.8164233 L18.4074734,25.8164233 C18.5387684,25.8154558 18.6497472,25.7582389 18.6503,25.6355126 L18.6503,23.7799695 C18.6475359,23.5211112 18.5208017,23.522355 18.4074734,23.5187617 L18.325656,23.5187617 L18.325656,23.3773778 L18.3415496,23.3773778 C18.459715,23.3773778 18.6851277,23.3916129 18.9077763,23.3916129 C19.1257259,23.3916129 19.3008319,23.3773778 19.4954248,23.3773778 C19.9557864,23.3783452 20.3793853,23.5050794 20.380491,24.035511 C20.380491,24.3649922 20.1626796,24.5709179 19.8811556,24.6857665 L20.4942339,25.6042783 C20.5963675,25.7557512 20.6599419,25.7936194 20.8375356,25.8164233 L20.8508033,25.8184963 L20.8508033,25.9575308 L20.8354625,25.9575308 L20.8354625,25.9575308 Z M19.1341564,24.7428452 L19.3836168,24.7428452 L19.3881776,24.7509993 C19.6258905,25.1704521 19.8658148,25.5647516 20.1346239,25.9262964 C20.2457409,25.9262964 20.3630771,25.9116466 20.47682,25.9116466 C20.593327,25.9116466 20.7061024,25.9243615 20.8194307,25.92602 L20.8194307,25.845861 C20.6483327,25.824992 20.5678972,25.7733032 20.4682513,25.6219685 L19.8326455,24.6715313 L19.8506122,24.6642064 C20.1365588,24.5515692 20.3484274,24.3565617 20.3485656,24.035511 C20.3484274,23.5289889 19.9544043,23.4115145 19.4954248,23.4090268 C19.3031814,23.4090268 19.1276608,23.4238147 18.9077763,23.4238147 C18.6932818,23.4238147 18.476576,23.4101324 18.3571667,23.4090268 L18.3571667,23.4866981 L18.4074734,23.4866981 C18.5208017,23.4869745 18.6820872,23.5057704 18.6820872,23.7799695 L18.6820872,25.6355126 C18.6820872,25.7820102 18.5448494,25.8486251 18.4074734,25.8489015 L18.3571667,25.8489015 L18.3571667,25.92602 C18.5326874,25.925329 18.6993628,25.9116466 18.8708755,25.9116466 C19.0747282,25.9116466 19.2809303,25.925329 19.4828482,25.92602 L19.4828482,25.8489015 L19.4328179,25.8489015 C19.266557,25.8486251 19.1179864,25.8280325 19.1179864,25.5397364 L19.1179864,24.7428452 L19.1341564,24.7428452 L19.1341564,24.7428452 Z M19.1341564,24.6426464 L19.1179864,24.6426464 L19.1179864,23.5247045 L19.1319451,23.5235989 C19.1819754,23.5195909 19.2311765,23.5095019 19.3416024,23.5095019 C19.6741242,23.5095019 19.8906917,23.7255167 19.8909681,24.058453 C19.8900007,24.4943522 19.6810344,24.6425082 19.3127175,24.6426464 L19.1341564,24.6426464 L19.1341564,24.6426464 Z M19.3127175,24.6115503 C19.6741242,24.6079569 19.8562786,24.4826048 19.859872,24.058453 C19.8576607,23.7394754 19.6596126,23.5415656 19.3416024,23.5401835 C19.2430621,23.5401835 19.196487,23.549305 19.1499118,23.5538658 L19.1499118,24.6115503 L19.3127175,24.6115503 L19.3127175,24.6115503 Z" id="Fill-24" fill="#FFFFFF"></path>
                    <path d="M23.3143111,25.2222791 L23.3206685,25.2150924 L23.3206685,23.846308 C23.3206685,23.5466791 23.1132225,23.5028681 23.0036258,23.5028681 L22.923605,23.5028681 L22.923605,23.3932714 C23.0952558,23.3932714 23.2626223,23.4077829 23.4346878,23.4077829 C23.5847787,23.4077829 23.7333493,23.3932714 23.8841312,23.3932714 L23.8841312,23.5028681 L23.8291255,23.5028681 C23.6757177,23.5028681 23.504205,23.5320294 23.504205,23.9665466 L23.504205,25.6277731 C23.504205,25.7557512 23.5077984,25.8834528 23.5257651,25.9967811 L23.3875599,25.9967811 L21.5074162,23.9006227 L21.5074162,25.4052628 C21.5074162,25.7231347 21.5690557,25.8321786 21.8501651,25.8321786 L21.9123575,25.8321786 L21.9123575,25.9419136 C21.7554946,25.9419136 21.598217,25.9276784 21.4413541,25.9276784 C21.2764753,25.9276784 21.1088324,25.9419136 20.9446446,25.9419136 L20.9446446,25.8321786 L20.9953659,25.8321786 C21.2474522,25.8321786 21.3245707,25.6605278 21.3245707,25.3693294 L21.3245707,23.8309673 C21.3245707,23.6267 21.156375,23.5028681 20.9921872,23.5028681 L20.9446446,23.5028681 L20.9446446,23.3932714 C21.0828498,23.3932714 21.2263068,23.4077829 21.3647885,23.4077829 C21.4732795,23.4077829 21.5796975,23.3932714 21.6894325,23.3932714 L23.3143111,25.2222791" id="Fill-25" fill="#FFFFFF"></path>
                    <path d="M23.5256269,26.0121218 L23.3756742,26.0070082 L21.5224806,23.9420842 L21.5224806,25.4051246 C21.526765,25.7231347 21.5748604,25.8129681 21.8501651,25.8164233 L21.9275601,25.8164233 L21.9275601,25.9575308 L21.9116665,25.9575308 C21.7538361,25.9575308 21.5971114,25.9423282 21.4406631,25.9423282 C21.2777192,25.9423282 21.1089706,25.9575308 20.9445064,25.9575308 L20.9281982,25.9575308 L20.9281982,25.8164233 L20.9953659,25.8164233 C21.236534,25.8154558 21.3056366,25.659975 21.3079861,25.368362 L21.3079861,23.8309673 C21.3075715,23.6363743 21.1483591,23.5187617 20.9921872,23.5187617 L20.9281982,23.5187617 L20.9281982,23.3773778 L20.9445064,23.3773778 C21.0839555,23.3773778 21.2268597,23.3916129 21.3646502,23.3916129 C21.4718975,23.3916129 21.5776245,23.3773778 21.7000743,23.3820767 L23.3051896,25.189248 L23.3051896,23.846308 C23.3042221,23.5563535 23.1097674,23.5204202 23.0036258,23.5187617 L22.9072968,23.5187617 L22.9072968,23.3773778 L22.9231904,23.3773778 C23.0956705,23.3773778 23.2640044,23.3916129 23.4346878,23.3916129 C23.5833966,23.3916129 23.7329347,23.3773778 23.8834401,23.3773778 L23.8996101,23.3773778 L23.8996101,23.5187617 L23.8291255,23.5187617 C23.6784818,23.522355 23.5232774,23.5358991 23.519684,23.9665466 L23.519684,25.6277731 C23.519684,25.755613 23.5228628,25.8822089 23.5415205,25.9941552 L23.5433171,26.0121218 L23.5256269,26.0121218 L23.5256269,26.0121218 Z M23.3874216,25.9803346 L23.5071074,25.9803346 C23.4910756,25.8711525 23.4878968,25.7492555 23.4878968,25.6277731 L23.4878968,23.9665466 C23.4881732,23.5282979 23.6728154,23.4876655 23.8291255,23.4866981 L23.8675465,23.4866981 L23.8675465,23.4090268 C23.7238131,23.4101324 23.5795269,23.4234001 23.4346878,23.4234001 C23.2669067,23.4234001 23.1042392,23.4101324 22.939084,23.4090268 L22.939084,23.4866981 L23.0036258,23.4866981 C23.1161248,23.4876655 23.3372532,23.5368666 23.3372532,23.846308 L23.3320014,25.2265634 L23.3253675,25.2336119 L23.3138965,25.2456358 L21.6894325,23.4090268 C21.5808032,23.4090268 21.474938,23.4234001 21.3646502,23.4234001 C21.2292091,23.4234001 21.0928006,23.4101324 20.9601236,23.4090268 L20.9601236,23.4866981 L20.9921872,23.4866981 C21.1639763,23.4876655 21.3396351,23.6171638 21.3396351,23.8309673 L21.3396351,25.368362 C21.3396351,25.661357 21.2571266,25.847934 20.9953659,25.8489015 L20.9601236,25.8486251 L20.9601236,25.9261582 C21.1178157,25.9250525 21.2804833,25.9116466 21.4406631,25.9116466 C21.5937945,25.9116466 21.7455438,25.9250525 21.8964639,25.9261582 L21.8964639,25.8489015 L21.8501651,25.8489015 C21.5628365,25.8486251 21.4912462,25.7231347 21.490417,25.4051246 L21.490417,23.8602668 L23.3874216,25.9803346 L23.3874216,25.9803346 Z M23.3138965,25.2222791 L23.3257821,25.2117755 L23.3138965,25.2222791 L23.3138965,25.2222791 Z M23.3051896,25.2150924 L23.3051896,25.214125 L23.3025637,25.2113609 L23.3051896,25.2150924 L23.3051896,25.2150924 Z" id="Fill-26" fill="#FFFFFF"></path>
                    <path d="M24.4710887,25.4199125 C24.4343261,25.5436062 24.3902386,25.6395206 24.3902386,25.7043388 C24.3902386,25.814212 24.544061,25.8323169 24.6641613,25.8323169 L24.7049319,25.8323169 L24.7049319,25.9419136 C24.5582962,25.9340359 24.4093109,25.9278167 24.2623988,25.9278167 C24.1309657,25.9278167 24.0002235,25.9340359 23.8683758,25.9419136 L23.8683758,25.8323169 L23.8906268,25.8323169 C24.0327018,25.8323169 24.1536313,25.7481499 24.2078078,25.5947421 L24.7920012,23.9194186 C24.839682,23.7839775 24.9054676,23.6015466 24.9277187,23.4661055 C25.0438111,23.4261642 25.1904468,23.3536065 25.2595494,23.3092426 C25.2708822,23.3055111 25.2776543,23.3017795 25.2887107,23.3017795 C25.2997671,23.3017795 25.3065391,23.3017795 25.3145551,23.3132506 C25.3253351,23.3421354 25.3359769,23.3750283 25.3473097,23.4041896 L26.0194016,25.3140473 C26.0632127,25.4414725 26.1066091,25.576499 26.1533224,25.6866486 C26.1978245,25.7890586 26.2745284,25.8323169 26.395458,25.8323169 L26.4172944,25.8323169 L26.4172944,25.9419136 C26.2528302,25.9340359 26.0880896,25.9278167 25.9136746,25.9278167 C25.7346989,25.9278167 25.551577,25.9340359 25.3654146,25.9419136 L25.3654146,25.8323169 L25.4056323,25.8323169 C25.4891082,25.8323169 25.632427,25.8178053 25.632427,25.7264517 C25.632427,25.6793237 25.599396,25.5806452 25.5586254,25.463309 L25.4164123,25.0399864 L24.5877339,25.0399864 L24.4710887,25.4199125 L24.4710887,25.4199125 Z M25.0041462,23.8023588 L24.9965449,23.8023588 L24.6572511,24.8357191 L25.339432,24.8357191 L25.0041462,23.8023588 L25.0041462,23.8023588 Z" id="Fill-27" fill="#FFFFFF"></path>
                    <path d="M26.4161888,25.9575308 C26.2521392,25.9504823 26.0875368,25.9423282 25.9136746,25.9423282 C25.7346989,25.9423282 25.5525444,25.9504823 25.3662438,25.9575308 L25.3493828,25.95836 L25.3493828,25.8157322 L25.4056323,25.8157322 C25.4902139,25.8157322 25.6157042,25.7967981 25.6159806,25.7264517 C25.6168098,25.6848519 25.5840552,25.5847913 25.5438375,25.468699 L25.4048031,25.0556036 L24.5994813,25.0556036 L24.4858766,25.4246115 C24.449114,25.5487198 24.4047502,25.645187 24.4054412,25.7046152 C24.406685,25.7937576 24.5429554,25.8157322 24.6641613,25.8157322 L24.7202727,25.8157322 L24.7202727,25.95836 L24.703688,25.9575308 C24.5577433,25.9504823 24.4087581,25.9423282 24.2626752,25.9423282 C24.1323477,25.9423282 24.0003617,25.9504823 23.8696196,25.9575308 L23.8526204,25.95836 L23.8526204,25.8157322 L23.8904886,25.8157322 C24.0262061,25.8154558 24.1395344,25.7379227 24.1923288,25.5896285 L24.777075,23.9137522 C24.824203,23.7785875 24.8905415,23.5969858 24.9220523,23.4510411 C25.0366244,23.4122055 25.1835365,23.3385421 25.2536066,23.2944546 C25.2638337,23.2908613 25.2739227,23.2861623 25.2885725,23.2861623 C25.2975558,23.2856095 25.3171809,23.287959 25.3290666,23.3070313 C25.339432,23.3370218 25.3510412,23.3697765 25.3620976,23.3992142 L26.0343278,25.3087955 C26.0773096,25.4366353 26.1209824,25.5715236 26.1688014,25.6797383 C26.2110922,25.7770348 26.2781218,25.8154558 26.395458,25.8157322 L26.4323588,25.8157322 L26.4323588,25.95836 L26.4161888,25.9575308 L26.4161888,25.9575308 Z M25.3813082,25.9250525 C25.5619424,25.9186951 25.7392597,25.9116466 25.9136746,25.9116466 C26.082976,25.9116466 26.2421884,25.9186951 26.400848,25.9250525 L26.400848,25.8486251 L26.395458,25.8486251 C26.2702441,25.8494543 26.1841422,25.8002532 26.1393637,25.6925914 C26.0918211,25.5823036 26.0474573,25.4467243 26.0043372,25.3188845 L25.3321071,23.409165 C25.3210507,23.3800037 25.3106853,23.3473872 25.3011491,23.3214047 C25.2975558,23.3178113 25.298385,23.3178113 25.2954827,23.3178113 L25.2885725,23.3178113 C25.2812476,23.3178113 25.276825,23.3200226 25.2674271,23.3223721 C25.1972188,23.3679798 25.0508595,23.4399847 24.9422302,23.468455 C24.9199792,23.6067984 24.8541935,23.7892293 24.8067891,23.9245322 L24.2225957,25.5999939 C24.1670372,25.7586535 24.0386446,25.8489015 23.8904886,25.8486251 L23.8844076,25.8486251 L23.8844076,25.9250525 C24.0096215,25.9186951 24.135941,25.9116466 24.2626752,25.9116466 C24.4039209,25.9116466 24.5479308,25.9186951 24.6876562,25.9250525 L24.6876562,25.8486251 L24.6641613,25.8486251 C24.5448903,25.8469666 24.3787676,25.8339753 24.3746214,25.7046152 C24.3748979,25.6321957 24.4196763,25.538769 24.4554715,25.4153517 L24.4709505,25.4199125 L24.4554715,25.4149371 L24.57571,25.0247838 L25.4270541,25.0247838 L25.5732752,25.4583336 C25.6143221,25.575808 25.6474914,25.6731045 25.6474914,25.7264517 C25.6421014,25.8382597 25.4884172,25.846552 25.4056323,25.8486251 L25.3813082,25.8486251 L25.3813082,25.9250525 L25.3813082,25.9250525 Z M24.635,24.8514745 L24.984521,23.7861888 L25.0041462,23.7861888 L25.0041462,23.8023588 L25.0002764,23.8034644 L25.0041462,23.8023588 L25.0041462,23.7861888 L25.0150644,23.7861888 L25.3620976,24.8514745 L24.635,24.8514745 L24.635,24.8514745 Z M24.6786729,24.8195491 L25.317872,24.8195491 L25.0001382,23.8411944 L24.6786729,24.8195491 L24.6786729,24.8195491 Z M24.9882526,23.8070578 L24.9966831,23.8044319 L24.9882526,23.8070578 L24.9882526,23.8070578 Z" id="Fill-28" fill="#FFFFFF"></path>
                    <path d="M26.5777506,23.5758404 C26.3039661,23.5758404 26.2929097,23.6419025 26.237904,23.9080858 L26.1281691,23.9080858 C26.1425424,23.8058139 26.1612001,23.7036803 26.172533,23.5978151 C26.1867681,23.4951286 26.1938166,23.3932714 26.1938166,23.2876826 L26.2821297,23.2876826 C26.3107382,23.3972793 26.40223,23.3932714 26.5007703,23.3932714 L28.3850601,23.3932714 C28.4831858,23.3932714 28.5744013,23.389678 28.5815879,23.2800813 L28.6689336,23.2950075 C28.6553895,23.3932714 28.640878,23.4919499 28.6294069,23.5907666 C28.621391,23.6893069 28.621391,23.7875708 28.621391,23.8861111 L28.5123471,23.9267435 C28.5058515,23.7918552 28.4874702,23.5758404 28.2422941,23.5758404 L27.6435892,23.5758404 L27.6435892,25.5183146 C27.6435892,25.7999768 27.7715672,25.8321786 27.946535,25.8321786 L28.0163286,25.8321786 L28.0163286,25.9419136 C27.8737009,25.9419136 27.618574,25.9278167 27.4209406,25.9278167 C27.2023,25.9278167 26.9460675,25.9419136 26.8037162,25.9419136 L26.8037162,25.8321786 L26.8732334,25.8321786 C27.0744602,25.8321786 27.1763174,25.814212 27.1763174,25.5259159 L27.1763174,23.5758404 L26.5777506,23.5758404" id="Fill-29" fill="#FFFFFF"></path>
                    <path d="M28.0163286,25.9575308 C27.8728716,25.9575308 27.6169156,25.9430192 27.4206642,25.9430192 C27.2025764,25.9430192 26.9468967,25.9575308 26.8038544,25.9575308 L26.7876843,25.9575308 L26.7876843,25.8164233 L26.8732334,25.8164233 C27.0745984,25.8117243 27.1553102,25.8090984 27.1601474,25.5259159 L27.159871,23.5914576 L26.5777506,23.5914576 L26.5777506,23.5595322 L27.1920728,23.5595322 L27.1920728,25.5259159 C27.1920728,25.8190492 27.0737691,25.847934 26.8732334,25.8486251 L26.8194715,25.8486251 L26.8194715,25.9262964 C26.9637578,25.9250525 27.209072,25.9116466 27.4206642,25.9116466 C27.6115256,25.9116466 27.8558724,25.9250525 28.0000204,25.9262964 L28.0000204,25.8486251 L27.9463968,25.8486251 C27.7704616,25.847934 27.6282484,25.8056432 27.627972,25.5183146 L27.627972,23.5595322 L28.2422941,23.5595322 C28.4876084,23.5604997 28.5195338,23.7686367 28.5265823,23.9044924 L28.605912,23.8753311 C28.605912,23.7799695 28.6064649,23.6844697 28.6139279,23.5889699 C28.6237405,23.4948522 28.637561,23.4014255 28.6508287,23.3082752 L28.5956849,23.2986008 C28.578962,23.4048806 28.4758609,23.4108234 28.3850601,23.409165 L26.4821126,23.409165 C26.3960108,23.4101324 26.3028605,23.405157 26.2696912,23.3030234 L26.2099866,23.3030234 C26.2091574,23.4040514 26.2019707,23.5021771 26.1875973,23.5994735 C26.1776466,23.7002251 26.1600945,23.7968306 26.1461358,23.8928832 L26.2246363,23.8928832 C26.2725935,23.638171 26.3042425,23.5555243 26.5777506,23.5595322 L26.5777506,23.5914576 C26.3070066,23.5961566 26.3129495,23.6420407 26.253383,23.9118173 L26.2507571,23.9242558 L26.1097878,23.9242558 L26.1119991,23.9061509 C26.1273399,23.8034644 26.1453065,23.7009162 26.1559483,23.595742 C26.1708745,23.4936083 26.1776466,23.3923039 26.1776466,23.2876826 L26.1776466,23.2715126 L26.2936007,23.2715126 L26.2966412,23.2829836 C26.3222092,23.3750283 26.3886859,23.3757193 26.4821126,23.3773778 L28.3850601,23.3773778 C28.4860881,23.3757193 28.5597515,23.3743373 28.5662472,23.2791139 L28.5668,23.2615618 L28.5837992,23.2648787 L28.6874531,23.2811869 L28.6849654,23.297357 C28.6699011,23.3953444 28.6560805,23.4936083 28.6450241,23.5914576 C28.637561,23.6893069 28.637561,23.7875708 28.637561,23.8861111 L28.637561,23.8971676 L28.6269192,23.9014519 L28.4976974,23.9487181 L28.4971445,23.9275727 C28.4876084,23.7901967 28.4730968,23.5914576 28.2422941,23.5914576 L27.6593446,23.5914576 L27.6593446,25.5183146 C27.6630761,25.7936194 27.7723964,25.8129681 27.9463968,25.8164233 L28.0315312,25.8164233 L28.0315312,25.9575308 L28.0163286,25.9575308" id="Fill-30" fill="#FFFFFF"></path>
                    <path d="M28.8040983,25.8321786 L28.8552342,25.8321786 C28.9868056,25.8321786 29.1250108,25.814212 29.1250108,25.6241798 L29.1250108,23.7114198 C29.1250108,23.5211112 28.9868056,23.5030063 28.8552342,23.5030063 L28.8040983,23.5030063 L28.8040983,23.3932714 C28.9465879,23.3932714 29.1652285,23.4077829 29.3439278,23.4077829 C29.5269115,23.4077829 29.746105,23.3932714 29.9180323,23.3932714 L29.9180323,23.5030063 L29.8667581,23.5030063 C29.7347722,23.5030063 29.5960141,23.5211112 29.5960141,23.7114198 L29.5960141,25.6241798 C29.5960141,25.814212 29.7347722,25.8321786 29.8667581,25.8321786 L29.9180323,25.8321786 L29.9180323,25.9419136 C29.7426499,25.9419136 29.5233182,25.9278167 29.3410255,25.9278167 C29.1617734,25.9278167 28.9465879,25.9419136 28.8040983,25.9419136 L28.8040983,25.8321786" id="Fill-31" fill="#FFFFFF"></path>
                    <path d="M29.9180323,25.9575308 C29.7415442,25.9575308 29.52318,25.9423282 29.3410255,25.9423282 C29.1623262,25.9423282 28.9467261,25.9575308 28.8040983,25.9575308 L28.7884811,25.9575308 L28.7884811,25.8164233 L28.8553724,25.8164233 C28.9869438,25.814212 29.108288,25.8026027 29.1091172,25.6241798 L29.1091172,23.7114198 C29.108288,23.5329968 28.9869438,23.5211112 28.8553724,23.5187617 L28.7884811,23.5187617 L28.7884811,23.3773778 L28.8040983,23.3773778 C28.9467261,23.3773778 29.1663342,23.3916129 29.3439278,23.3916129 C29.5259441,23.3916129 29.7449994,23.3773778 29.9180323,23.3773778 L29.9332348,23.3773778 L29.9332348,23.5187617 L29.8668964,23.5187617 C29.7332519,23.5211112 29.6131516,23.5329968 29.6119077,23.7114198 L29.6119077,25.6241798 C29.6131516,25.8026027 29.7332519,25.814212 29.8668964,25.8164233 L29.9332348,25.8164233 L29.9332348,25.9575308 L29.9180323,25.9575308 L29.9180323,25.9575308 Z M29.9014477,25.92602 L29.9014477,25.8486251 L29.8668964,25.8486251 C29.7358778,25.8486251 29.5809498,25.825683 29.5809498,25.6241798 L29.5809498,23.7114198 C29.5809498,23.5095019 29.7358778,23.4869745 29.8668964,23.4866981 L29.9014477,23.4866981 L29.9014477,23.4090268 C29.7331137,23.4101324 29.5216597,23.4234001 29.3439278,23.4234001 C29.1706185,23.4234001 28.9616522,23.4101324 28.8199919,23.4090268 L28.8199919,23.4866981 L28.8553724,23.4866981 C28.9850089,23.4869745 29.140628,23.5095019 29.1410426,23.7114198 L29.1410426,25.6241798 C29.140628,25.825683 28.9850089,25.8486251 28.8553724,25.8486251 L28.8199919,25.8486251 L28.8199919,25.92602 C28.9606848,25.9243615 29.1671634,25.9116466 29.3410255,25.9116466 C29.5180664,25.9116466 29.729244,25.9250525 29.9014477,25.92602 L29.9014477,25.92602 Z" id="Fill-32" fill="#FFFFFF"></path>
                    <path d="M31.3738859,23.3385421 C32.1522576,23.3385421 32.7726608,23.8210165 32.7726608,24.5986972 C32.7726608,25.4385702 32.1700861,25.9967811 31.3926818,25.9967811 C30.6183181,25.9967811 30.0270762,25.4709102 30.0270762,24.6857665 C30.0270762,23.9267435 30.6147247,23.3385421 31.3738859,23.3385421 M31.4290298,25.8360484 C32.1376079,25.8360484 32.2611634,25.2112227 32.2611634,24.6788562 C32.2611634,24.1452459 31.9734201,23.4992748 31.3669757,23.4992748 C30.7281912,23.4992748 30.538159,24.0689566 30.538159,24.5577884 C30.538159,25.2112227 30.8377879,25.8360484 31.4290298,25.8360484" id="Fill-33" fill="#FFFFFF"></path>
                    <path d="M30.010768,24.6857665 C30.0122882,23.9178983 30.6067088,23.3238924 31.3737477,23.3226485 L31.3737477,23.3545739 C30.6231552,23.3545739 30.0425552,23.9347594 30.0417259,24.6857665 C30.0432462,25.4620651 30.6259193,25.9800582 31.39282,25.9803346 C32.1623466,25.9800582 32.7562144,25.4298633 32.7571818,24.5981444 C32.7564908,23.830138 32.1459002,23.3552649 31.3737477,23.3545739 L31.3737477,23.3226485 C32.1576477,23.3234777 32.786896,23.8106511 32.788278,24.5981444 C32.7874488,25.4467243 32.1776874,26.0107398 31.39282,26.0121218 C30.6118224,26.0107398 30.0122882,25.4796172 30.010768,24.6857665 M30.5221272,24.5577884 C30.5232329,24.0664689 30.7149235,23.4829665 31.3668375,23.4829665 C31.986826,23.4843486 32.2759513,24.1423436 32.2771952,24.6788562 C32.2759513,25.2112227 32.1507374,25.8509746 31.429168,25.8509746 L31.429168,25.8200166 C32.1233728,25.8194638 32.2440259,25.2112227 32.2451315,24.6788562 C32.2451315,24.1499449 31.9602906,23.5161358 31.3668375,23.5151684 C30.7404915,23.5158594 30.5554347,24.0714443 30.5537762,24.5577884 C30.5540526,25.2081821 30.8509174,25.8190492 31.429168,25.8200166 L31.429168,25.8509746 C30.8231382,25.8504217 30.5232329,25.2150924 30.5221272,24.5577884" id="Fill-34" fill="#FFFFFF"></path>
                    <path d="M35.2329899,25.2222791 L35.2405912,25.2150924 L35.2405912,23.846308 C35.2405912,23.5466791 35.0317631,23.5028681 34.9223046,23.5028681 L34.8428366,23.5028681 L34.8428366,23.3932714 C35.0139347,23.3932714 35.1822686,23.4077829 35.3533666,23.4077829 C35.5034575,23.4077829 35.6531337,23.3932714 35.8029482,23.3932714 L35.8029482,23.5028681 L35.7480807,23.5028681 C35.5950875,23.5028681 35.4227457,23.5320294 35.4227457,23.9665466 L35.4227457,25.6277731 C35.4227457,25.7557512 35.4266154,25.8834528 35.4451349,25.9967811 L35.3062387,25.9967811 L33.4255422,23.9006227 L33.4255422,25.4052628 C33.4255422,25.7231347 33.4878728,25.8321786 33.7684293,25.8321786 L33.8310363,25.8321786 L33.8310363,25.9419136 C33.673897,25.9419136 33.5171723,25.9276784 33.3601712,25.9276784 C33.195707,25.9276784 33.0276494,25.9419136 32.8633234,25.9419136 L32.8633234,25.8321786 L32.9145976,25.8321786 C33.1669603,25.8321786 33.2431113,25.6605278 33.2431113,25.3693294 L33.2431113,23.8309673 C33.2431113,23.6267 33.0757448,23.5028681 32.9105896,23.5028681 L32.8633234,23.5028681 L32.8633234,23.3932714 C33.0020815,23.3932714 33.1442946,23.4077829 33.2833291,23.4077829 C33.3926494,23.4077829 33.4979617,23.3932714 33.6079731,23.3932714 L35.2329899,25.2222791" id="Fill-35" fill="#FFFFFF"></path>
                    <path d="M35.4452731,26.0121218 L35.2942148,26.0070082 L33.4412976,23.9420842 L33.4412976,25.4052628 C33.445582,25.7231347 33.4938156,25.8125535 33.7680147,25.8157322 L33.8466535,25.8157322 L33.8466535,25.9575308 L33.8311745,25.9575308 C33.6730677,25.9575308 33.516343,25.942881 33.3601712,25.942881 C33.1965362,25.942881 33.0284787,25.9575308 32.8629088,25.9575308 L32.8479827,25.9575308 L32.8479827,25.8157322 L32.9144594,25.8157322 C33.1550746,25.8150412 33.2244536,25.659975 33.2273559,25.3691912 L33.2273559,23.8309673 C33.2272177,23.6363743 33.0675907,23.5187617 32.9107278,23.5187617 L32.8479827,23.5187617 L32.8479827,23.3773778 L32.8629088,23.3773778 C33.0029107,23.3773778 33.1452621,23.3916129 33.2831909,23.3916129 C33.3915437,23.3916129 33.4964415,23.3773778 33.6202734,23.3830442 L35.2245594,25.189248 L35.2245594,23.846308 C35.2233155,23.5563535 35.0288608,23.5211112 34.9223046,23.5187617 L34.8261138,23.5187617 L34.8261138,23.3773778 L34.8428366,23.3773778 C35.0143493,23.3773778 35.1828214,23.3916129 35.352952,23.3916129 C35.5023519,23.3916129 35.6513371,23.3773778 35.8030864,23.3773778 L35.8184272,23.3773778 L35.8184272,23.5187617 L35.7479425,23.5187617 C35.597437,23.5226314 35.4420944,23.536452 35.4390539,23.9665466 L35.4390539,25.6277731 C35.4390539,25.755613 35.4419562,25.8830382 35.4596464,25.9941552 L35.4628252,26.0121218 L35.4452731,26.0121218 L35.4452731,26.0121218 Z M35.3062387,25.9803346 L35.4259244,25.9803346 C35.4104454,25.8704615 35.4068521,25.7492555 35.4068521,25.6277731 L35.4068521,23.9665466 C35.4068521,23.5276068 35.5912178,23.4876655 35.7479425,23.4866981 L35.7874692,23.4866981 L35.7874692,23.4090268 C35.6424919,23.4101324 35.4988967,23.4234001 35.352952,23.4234001 C35.1866912,23.4234001 35.0234708,23.4101324 34.8581774,23.4090268 L34.8581774,23.4866981 L34.9223046,23.4866981 C35.0350801,23.4876655 35.2555174,23.5375576 35.2555174,23.846308 L35.2516476,25.2265634 L35.2445991,25.2336119 L35.2329899,25.2456358 L33.6081113,23.4090268 C33.5000348,23.4090268 33.393755,23.4234001 33.2831909,23.4234001 C33.148579,23.4234001 33.0114794,23.4101324 32.8786642,23.4090268 L32.8786642,23.4866981 L32.9107278,23.4866981 C33.0823787,23.4876655 33.2587285,23.6171638 33.2587285,23.8309673 L33.2587285,25.3691912 C33.2587285,25.661357 33.1771875,25.847934 32.9144594,25.8489015 L32.8786642,25.8486251 L32.8786642,25.9261582 C33.0371856,25.9250525 33.1997149,25.9116466 33.3601712,25.9116466 C33.5124733,25.9116466 33.663808,25.9250525 33.8151427,25.9261582 L33.8151427,25.8489015 L33.7680147,25.8489015 C33.4815153,25.8486251 33.4096486,25.7231347 33.4096486,25.4052628 L33.4096486,23.8597139 L35.3062387,25.9803346 L35.3062387,25.9803346 Z M35.2329899,25.2222791 L35.2445991,25.2117755 L35.2329899,25.2222791 L35.2329899,25.2222791 Z M35.2245594,25.2150924 L35.2245594,25.214125 L35.2216571,25.2113609 L35.2245594,25.2150924 L35.2245594,25.2150924 Z" id="Fill-36" fill="#FFFFFF"></path>
                    <path d="M36.3894911,25.4199125 C36.3536959,25.5436062 36.3096085,25.6395206 36.3096085,25.7043388 C36.3096085,25.814212 36.4634309,25.8323169 36.5831166,25.8323169 L36.6238871,25.8323169 L36.6238871,25.9419136 C36.477666,25.9340359 36.3278516,25.9278167 36.1816304,25.9278167 C36.0501973,25.9278167 35.9189023,25.9340359 35.788022,25.9419136 L35.788022,25.8323169 L35.8087528,25.8323169 C35.9519334,25.8323169 36.0728629,25.7481499 36.1262102,25.5947421 L36.7116474,23.9194186 C36.7587754,23.7839775 36.8248375,23.6015466 36.8458447,23.4661055 C36.9631809,23.4261642 37.1088492,23.3536065 37.1791956,23.3092426 C37.1894228,23.3055111 37.1967477,23.3017795 37.2080805,23.3017795 C37.2187223,23.3017795 37.2256326,23.3017795 37.2330957,23.3132506 C37.2441521,23.3421354 37.2550703,23.3750283 37.2661267,23.4041896 L37.9379422,25.3140473 C37.9814769,25.4414725 38.0255643,25.576499 38.0732451,25.6866486 C38.1170562,25.7890586 38.1936218,25.8323169 38.3139986,25.8323169 L38.336526,25.8323169 L38.336526,25.9419136 C38.1719236,25.9340359 38.0074594,25.9278167 37.832077,25.9278167 C37.6535159,25.9278167 37.4706704,25.9340359 37.2842316,25.9419136 L37.2842316,25.8323169 L37.3247257,25.8323169 C37.4082017,25.8323169 37.5513822,25.8178053 37.5513822,25.7264517 C37.5513822,25.6793237 37.5186276,25.5806452 37.4778571,25.463309 L37.3355057,25.0399864 L36.5068273,25.0399864 L36.3894911,25.4199125 L36.3894911,25.4199125 Z M36.9233778,23.8023588 L36.9160529,23.8023588 L36.5756535,24.8357191 L37.2594929,24.8357191 L36.9233778,23.8023588 L36.9233778,23.8023588 Z" id="Fill-37" fill="#FFFFFF"></path>
                    <path d="M38.3348676,25.9575308 C38.1702652,25.9510351 38.0063538,25.942881 37.8322152,25.942881 C37.6540687,25.942881 37.471085,25.9510351 37.2850608,25.9575308 L37.2688908,25.95836 L37.2688908,25.8164233 L37.3244493,25.8164233 C37.4093073,25.8164233 37.535074,25.7967981 37.5352122,25.7264517 C37.5361797,25.6848519 37.5031486,25.5852059 37.4621017,25.468699 L37.3236201,25.0556036 L36.5176073,25.0556036 L36.4048319,25.4246115 C36.3680693,25.5496872 36.3249492,25.645187 36.3253639,25.7043388 C36.3253639,25.7937576 36.4623252,25.8164233 36.5829784,25.8164233 L36.6388133,25.8164233 L36.6388133,25.95836 L36.6223668,25.9575308 C36.4765604,25.9510351 36.3270223,25.942881 36.1816304,25.942881 C36.0507501,25.942881 35.9197316,25.9510351 35.788022,25.9575308 L35.7721284,25.95836 L35.7721284,25.8164233 L35.8087528,25.8164233 C35.9448849,25.8157322 36.058766,25.7377845 36.1122514,25.5896285 L36.6961684,23.9137522 C36.74302,23.7785875 36.8089439,23.5969858 36.8410075,23.451594 C36.9557178,23.4117909 37.1023535,23.3385421 37.173391,23.2944546 C37.182789,23.2908613 37.1930161,23.2864387 37.2079423,23.2864387 C37.2173403,23.2856095 37.2365508,23.287959 37.2477454,23.3078606 C37.2588018,23.3366072 37.2695818,23.3697765 37.2814675,23.3992142 L37.9528684,25.3087955 C37.9968176,25.4366353 38.0403523,25.5715236 38.0877567,25.6804293 C38.1307385,25.7770348 38.1968006,25.8154558 38.313584,25.8164233 L38.351314,25.8164233 L38.351314,25.95836 L38.3348676,25.9575308 L38.3348676,25.9575308 Z M37.2998488,25.925329 C37.480483,25.9186951 37.6580767,25.9116466 37.8322152,25.9116466 C38.0019312,25.9116466 38.160729,25.9186951 38.3200796,25.9250525 L38.319665,25.8486251 L38.313584,25.8486251 C38.1898903,25.8489015 38.1037885,25.8002532 38.0581807,25.6925914 C38.0100853,25.5823036 37.9666889,25.4467243 37.9228778,25.3192991 L37.2510623,23.409165 C37.2402823,23.3800037 37.2286731,23.3473872 37.2201044,23.3220957 C37.2170639,23.3178113 37.2173403,23.3178113 37.215129,23.3178113 L37.2079423,23.3178113 C37.2000646,23.3178113 37.1960567,23.320299 37.1873497,23.3227867 C37.1158976,23.367427 36.9698147,23.4406758 36.8620147,23.468455 C36.839349,23.6067984 36.7730105,23.7889529 36.7260208,23.9245322 L36.1412745,25.5999939 C36.085716,25.7586535 35.9581526,25.8489015 35.8087528,25.8486251 L35.8033628,25.8486251 L35.8033628,25.9250525 C35.9291295,25.9186951 36.0546199,25.9116466 36.1816304,25.9116466 C36.3230144,25.9116466 36.4674388,25.9186951 36.6077171,25.9250525 L36.6077171,25.8486251 L36.5829784,25.8486251 C36.4642601,25.8469666 36.297861,25.8343899 36.293162,25.7043388 C36.2941295,25.6321957 36.3390462,25.5390454 36.3748413,25.4153517 L36.3894911,25.4199125 L36.3748413,25.4149371 L36.4949416,25.0247838 L37.3460093,25.0247838 L37.492645,25.4583336 C37.5328628,25.575808 37.5661702,25.6731045 37.5661702,25.7264517 C37.5609184,25.8382597 37.4073724,25.846552 37.3244493,25.8486251 L37.2998488,25.8486251 L37.2998488,25.925329 L37.2998488,25.925329 Z M36.5538171,24.8513363 L36.9044437,23.7861888 L36.9233778,23.7861888 L36.9233778,23.8023588 L36.9192316,23.8034644 L36.9233778,23.8023588 L36.9233778,23.7861888 L36.9344342,23.7861888 L37.2796708,24.8513363 L36.5538171,24.8513363 L36.5538171,24.8513363 Z M36.5979045,24.8195491 L37.236689,24.8195491 L36.9190934,23.8417473 L36.5979045,24.8195491 L36.5979045,24.8195491 Z M36.9081752,23.8070578 L36.9153619,23.8044319 L36.9081752,23.8070578 L36.9081752,23.8070578 Z" id="Fill-38" fill="#FFFFFF"></path>
                    <path d="M39.2561435,25.5838239 C39.2561435,25.7305978 39.3575861,25.7738561 39.4747841,25.7890586 C39.6241839,25.7999768 39.7886481,25.7999768 39.9571203,25.7813191 C40.1102516,25.7629378 40.2416848,25.6758686 40.3071941,25.5838239 C40.3652403,25.5036649 40.3981331,25.401393 40.4205223,25.321234 L40.5261111,25.321234 C40.4858934,25.529371 40.4348957,25.734053 40.3910846,25.9419136 C40.0704485,25.9419136 39.748154,25.9278167 39.4273797,25.9278167 C39.1057762,25.9278167 38.7847255,25.9419136 38.4635366,25.9419136 L38.4635366,25.8321786 L38.5141197,25.8321786 C38.6458293,25.8321786 38.7887335,25.814212 38.7887335,25.5878318 L38.7887335,23.7114198 C38.7887335,23.5211112 38.6458293,23.5028681 38.5141197,23.5028681 L38.4635366,23.5028681 L38.4635366,23.3932714 C38.6567475,23.3932714 38.8469179,23.4077829 39.0401287,23.4077829 C39.2267058,23.4077829 39.4088602,23.3932714 39.5955755,23.3932714 L39.5955755,23.5028681 L39.5038072,23.5028681 C39.3650492,23.5028681 39.2561435,23.5067378 39.2561435,23.7002251 L39.2561435,25.5838239" id="Fill-39" fill="#FFFFFF"></path>
                    <path d="M40.3912228,25.9575308 C40.0692047,25.9575308 39.7476012,25.942881 39.4273797,25.942881 C39.1061908,25.942881 38.7848637,25.9575308 38.4628456,25.9575308 L38.4475048,25.9575308 L38.4475048,25.8164233 L38.5141197,25.8164233 C38.6461057,25.8132445 38.7714578,25.8039848 38.7729781,25.5878318 L38.7729781,23.7107287 C38.7714578,23.5329968 38.6466585,23.5211112 38.5141197,23.5187617 L38.4475048,23.5187617 L38.4475048,23.3773778 L38.4628456,23.3773778 C38.6573003,23.3773778 38.8473325,23.3916129 39.0398523,23.3916129 C39.2257383,23.3916129 39.4076164,23.3773778 39.5955755,23.3773778 L39.6102252,23.3773778 L39.6102252,23.5187617 L39.5038072,23.5187617 C39.3621469,23.522355 39.2742484,23.5159976 39.2710696,23.7002251 L39.2710696,25.5838239 C39.2720371,25.7203706 39.3614558,25.7568568 39.4756133,25.773165 C39.5398788,25.7775876 39.6078757,25.7799371 39.678084,25.7799371 C39.7673645,25.7799371 39.8601002,25.7757909 39.9544944,25.7658401 C40.1032032,25.7481499 40.2311812,25.6621862 40.294341,25.575117 C40.3507287,25.497031 40.3825159,25.3969705 40.4046287,25.3175025 L40.4076693,25.3054786 L40.5453216,25.3054786 L40.5421429,25.3246891 C40.5008196,25.533379 40.4505129,25.7370935 40.4062872,25.9452305 L40.4033849,25.9575308 L40.3912228,25.9575308 L40.3912228,25.9575308 Z M40.3778169,25.92602 C40.4201077,25.7276955 40.4677885,25.5337936 40.5073152,25.3368512 L40.4319934,25.3368512 C40.4096041,25.4163192 40.3769877,25.5143067 40.3197707,25.5937747 C40.2514974,25.688307 40.1163327,25.7775876 39.9579495,25.7972127 C39.8624497,25.8068871 39.7675027,25.8118625 39.678084,25.8118625 C39.6073229,25.8118625 39.5390495,25.8086838 39.4725728,25.8039848 C39.3538546,25.7909935 39.239006,25.7399958 39.2391442,25.5838239 L39.2391442,23.7002251 C39.2391442,23.4972017 39.3675369,23.4866981 39.5038072,23.4866981 L39.5789908,23.4866981 L39.5789908,23.4090268 C39.3991859,23.4101324 39.2215922,23.4238147 39.0398523,23.4238147 C38.8512022,23.4238147 38.6661454,23.4101324 38.479292,23.4090268 L38.479292,23.4866981 L38.5141197,23.4866981 C38.644309,23.4866981 38.8036596,23.5095019 38.8036596,23.7107287 L38.8036596,25.5878318 C38.8036596,25.8241627 38.645,25.8486251 38.5141197,25.8486251 L38.479292,25.8486251 L38.479292,25.92602 C38.7946763,25.925329 39.110337,25.9116466 39.4273797,25.9116466 C39.7448371,25.9116466 40.0617416,25.925329 40.3778169,25.92602 L40.3778169,25.92602 Z" id="Fill-40" fill="#FFFFFF"></path>
                    <path d="M40.481609,23.2897557 C40.7019081,23.2897557 40.8662341,23.4589188 40.8662341,23.6750718 C40.8662341,23.8910865 40.7019081,24.058453 40.481609,24.058453 C40.2618628,24.058453 40.0972604,23.8910865 40.0972604,23.6750718 C40.0972604,23.4589188 40.2618628,23.2897557 40.481609,23.2897557 L40.481609,23.2897557 Z M40.481609,23.9870009 C40.6540891,23.9870009 40.7857987,23.8403652 40.7857987,23.6750718 C40.7857987,23.5095019 40.6556094,23.3617606 40.481609,23.3617606 C40.3085761,23.3617606 40.1770048,23.5095019 40.1770048,23.6750718 C40.1770048,23.8403652 40.3085761,23.9870009 40.481609,23.9870009 L40.481609,23.9870009 Z M40.2904712,23.8778188 L40.2904712,23.8591611 C40.337461,23.8523891 40.3463061,23.8536329 40.3463061,23.8248862 L40.3463061,23.5399071 C40.3463061,23.4998276 40.3422982,23.4860071 40.2919915,23.4882183 L40.2919915,23.4685932 L40.4887957,23.4685932 C40.5563781,23.4685932 40.6187086,23.5009332 40.6187086,23.5708651 C40.6187086,23.6279438 40.5811168,23.6703728 40.5277696,23.6868192 L40.5910676,23.7749941 C40.6205053,23.8147972 40.6540891,23.8523891 40.6756491,23.8656568 L40.6756491,23.8778188 L40.6008801,23.8778188 C40.5649468,23.8778188 40.5331596,23.8023588 40.4626749,23.7010544 L40.4201077,23.7010544 L40.4201077,23.8284796 C40.4201077,23.8536329 40.4289529,23.8523891 40.476219,23.8591611 L40.476219,23.8778188 L40.2904712,23.8778188 L40.2904712,23.8778188 Z M40.4201077,23.6750718 L40.465439,23.6750718 C40.5150547,23.6750718 40.5379968,23.6376182 40.5379968,23.5769461 C40.5379968,23.5158594 40.5026162,23.4941612 40.4629513,23.4941612 L40.4201077,23.4941612 L40.4201077,23.6750718 L40.4201077,23.6750718 Z" id="Fill-41" fill="#FFFFFF"></path>
                    <path d="M27.6001928,10.3815276 C27.5977051,8.79797232 26.6078794,7.44743104 25.2131124,6.91257689 L25.2131124,13.8502019 C26.6078794,13.3146567 27.5977051,11.9653592 27.6001928,10.3815276 L27.6001928,10.3815276 Z M22.5523858,13.8488198 L22.5523858,6.91326792 C21.1588627,7.44978053 20.1705573,8.79838693 20.1668257,10.3815276 C20.1705573,11.9642536 21.1588627,13.3127218 22.5523858,13.8488198 L22.5523858,13.8488198 Z M23.8834401,4.51761886 C20.6450157,4.51886271 18.0213281,7.14310317 18.0207753,10.3815276 C18.0213281,13.6195374 20.6450157,16.2433632 23.8834401,16.243916 C27.1218645,16.2433632 29.746105,13.6195374 29.7469342,10.3815276 C29.746105,7.14310317 27.1218645,4.51886271 23.8834401,4.51761886 L23.8834401,4.51761886 Z M23.8690668,16.7972897 C20.3253471,16.8141507 17.4086644,13.943214 17.4086644,10.4484189 C17.4086644,6.62897981 20.3253471,3.98718728 23.8690668,3.98787831 L25.5297406,3.98787831 C29.0315841,3.98718728 32.2275795,6.62773596 32.2275795,10.4484189 C32.2275795,13.9419701 29.0315841,16.7972897 25.5297406,16.7972897 L23.8690668,16.7972897 L23.8690668,16.7972897 Z" id="Fill-43" fill="#FFFFFF"></path>
                </g>
            </g>
        </g>
    </g>
</svg>