<?xml version="1.0" encoding="UTF-8"?>
<svg width="50px" height="30px" viewBox="0 0 50 30" version="1.1" xmlns="http://www.w3.org/2000/svg" xmlns:xlink="http://www.w3.org/1999/xlink">
    <title>icon_payment_cirrus_original</title>
    <desc>Created with Sketch.</desc>
    <defs></defs>
    <g id="Stylesheets---FrontEnd" stroke="none" stroke-width="1" fill="none" fill-rule="evenodd">
        <g id="Payment-Cards" transform="translate(-27.000000, -110.000000)">
            <g id="Payment/Cirrus/Original" transform="translate(27.000000, 110.000000)">
                <g id="Cirrus-dark">
                    <rect id="Rectangle" fill="#000066" x="0" y="0" width="50" height="30" rx="3"></rect>
                    <path d="M28.5075211,15.0001563 C28.5075211,20.4609375 24.0515493,24.8875 18.5548756,24.8875 C13.0585164,24.8875 8.60270188,20.4609375 8.60270188,15.0001563 C8.60270188,9.54 13.0585164,5.113125 18.5548756,5.113125 C24.0515493,5.113125 28.5075211,9.54 28.5075211,15.0001563" id="Fill-374" fill="#333399"></path>
                    <path d="M31.9163427,5.113125 C29.3450211,5.113125 27.0017512,6.08234375 25.2353732,7.67234375 C24.875838,7.99609375 24.5398944,8.34640625 24.2306878,8.71875 L26.2410023,8.71875 C26.5162371,9.05078125 26.7692958,9.39984375 26.9998638,9.76578125 L23.4718263,9.76578125 C23.2606033,10.1020312 23.0685681,10.45125 22.8985516,10.8128125 L27.5731385,10.8128125 C27.7326174,11.151875 27.8736948,11.5009375 27.9944836,11.8592188 L22.4767347,11.8592188 C22.3617653,12.2007813 22.2653545,12.5498437 22.1878169,12.9064062 L28.2832441,12.9064062 C28.4298263,13.5814063 28.5075211,14.2817187 28.5075211,15.0001563 C28.5075211,16.098125 28.3271244,17.154375 27.9944836,18.1410938 L22.4767347,18.1410938 C22.597838,18.4995313 22.7387582,18.8490625 22.8982371,19.188125 L27.5731385,19.188125 C27.4026502,19.549375 27.2110869,19.8989063 26.999392,20.2351563 L23.4718263,20.2351563 C23.7022371,20.6004688 23.9557676,20.9501563 24.2306878,21.2815625 L26.2406878,21.2815625 C25.9319531,21.6545313 25.5956948,22.0048438 25.2356878,22.3285938 C27.0019085,23.9185938 29.3450211,24.8875 31.9163427,24.8875 C37.4128592,24.8875 41.8686737,20.4609375 41.8686737,15.0001563 C41.8686737,9.54 37.4128592,5.113125 31.9163427,5.113125" id="Fill-375" fill="#0066CC"></path>
                    <path d="M40.5420423,20.51125 C40.5420423,20.335 40.686108,20.1923437 40.8633592,20.1923437 C41.0410822,20.1923437 41.1846761,20.335 41.1846761,20.51125 C41.1846761,20.6876562 41.0410822,20.8307812 40.8633592,20.8307812 C40.686108,20.8307812 40.5420423,20.6876562 40.5420423,20.51125 L40.5420423,20.51125 Z M40.8633592,20.7542187 C40.9986174,20.7542187 41.1077676,20.645625 41.1077676,20.51125 C41.1077676,20.3773437 40.9986174,20.2690625 40.8633592,20.2690625 C40.72873,20.2690625 40.6194225,20.3773437 40.6194225,20.51125 C40.6194225,20.645625 40.72873,20.7542187 40.8633592,20.7542187 L40.8633592,20.7542187 Z M40.820108,20.6514062 L40.7543662,20.6514062 L40.7543662,20.37125 L40.8735822,20.37125 C40.8984319,20.37125 40.9235962,20.37125 40.945615,20.3853125 C40.9684202,20.4007812 40.9813169,20.4276562 40.9813169,20.4551562 C40.9813169,20.4871875 40.9629155,20.516875 40.9327183,20.528125 L40.9843052,20.6514062 L40.9111714,20.6514062 L40.868392,20.540625 L40.820108,20.540625 L40.820108,20.6514062 L40.820108,20.6514062 Z M40.820108,20.4926562 L40.856439,20.4926562 C40.8699648,20.4926562 40.8845915,20.4935937 40.8965446,20.4871875 C40.9073967,20.4801562 40.9130587,20.4673437 40.9130587,20.4548437 C40.9130587,20.4442187 40.9064531,20.4320312 40.8971737,20.42625 C40.8855352,20.4195312 40.8672911,20.42125 40.8551808,20.42125 L40.820108,20.42125 L40.820108,20.4926562 L40.820108,20.4926562 Z" id="Fill-376" fill="#0066CC"></path>
                    <path d="M17.9811291,12.7367187 C17.8922676,13.1245312 17.8457136,13.3442187 17.7252394,13.8164062 C16.9769155,13.5010937 15.9734883,13.3365625 15.2036174,13.8142187 C14.4771549,14.2735937 14.2316455,14.9903125 14.2846479,15.7842188 C14.3381221,16.16625 14.6267254,16.539375 15.0331291,16.70125 C15.73773,16.9596875 16.4100892,16.8651562 17.1585704,16.4851562 C17.0520939,16.963125 16.9718826,17.3384375 16.8789319,17.6801562 C15.9811948,17.9292187 15.1290681,18.0110938 14.2316455,17.7146875 C13.4300047,17.4376562 12.7779343,16.7204687 12.7249319,15.9465625 C12.5431197,14.70375 13.141716,13.4321875 14.359669,12.8485937 C15.4922207,12.3423437 16.7842512,12.4303125 17.9811291,12.7367187" id="Fill-377" fill="#000066"></path>
                    <path d="M30.6630023,17.15375 C30.4263005,17.3890625 30.0243005,17.9045312 28.9316972,17.9045312 C27.9366056,17.9045312 27.2381385,17.1754687 27.5918545,15.5384375 C27.5918545,15.538125 28.0032911,13.61125 28.0032911,13.61125 L29.5218005,13.61125 C29.5218005,13.61125 29.1094202,15.5403125 29.1102066,15.5384375 C28.9699155,16.1940625 29.0031009,16.6929687 29.6734155,16.6929687 C30.4634178,16.6929687 30.6998052,16.2184375 30.849061,15.5384375 C30.8479601,15.539375 31.2614413,13.61125 31.2614413,13.61125 L32.8456925,13.61125 L32.164054,16.7092187 C32.0865164,17.0726562 32.012439,17.4575 31.9696596,17.8370312 L30.5437864,17.8370312 C30.5437864,17.8370312 30.6337488,17.3209375 30.6630023,17.15375" id="Fill-378" fill="#000066"></path>
                    <path d="M33.349608,14.9476563 C33.349608,15.4835938 33.7037958,15.8498438 34.5087394,16.1234375 C35.1301408,16.3392188 35.2276526,16.4025 35.2276526,16.5901563 C35.2276526,16.8575 34.950216,16.9709375 34.3513052,16.9709375 C33.8953592,16.9709375 33.4719695,16.9257813 32.9818944,16.8082813 C32.9818944,16.8082813 32.7890728,17.6848438 32.7694131,17.7848438 C33.1954765,17.8603125 33.9332629,17.9045313 34.3618427,17.9045313 C35.9698427,17.9045313 36.715493,17.4579688 36.715493,16.4945313 C36.715493,15.918125 36.4028263,15.57875 35.6400329,15.31875 C34.9969272,15.10875 34.9256808,15.0603125 34.9256808,14.8598438 C34.9256808,14.6354688 35.1796831,14.5164063 35.6738474,14.5164063 C35.9712582,14.5164063 36.3877277,14.5414063 36.7747864,14.5817188 L36.9883685,13.60125 C36.5932887,13.5545313 35.9913897,13.5170313 35.6441221,13.5170313 C33.9375094,13.5170313 33.3442606,14.1696875 33.349608,14.9476563" id="Fill-379" fill="#000066"></path>
                    <polyline id="Fill-380" fill="#000066" points="18.560223 13.61125 20.1491925 13.61125 19.2439061 17.8370312 17.6546221 17.8370312 18.560223 13.61125"></polyline>
                    <path d="M27.6368357,13.5932812 C26.5163944,13.44625 26.1966502,13.993125 25.8957793,14.265 C25.9316385,14.045 25.9978521,13.8304687 25.9846408,13.61125 L24.5251103,13.61125 C24.3244249,14.9198437 23.9680352,16.2440625 23.6891831,17.5526562 L23.6160493,17.8367187 L25.2684014,17.8367187 C25.4571338,16.9785937 25.6762207,15.683125 25.9289648,15.2909375 C26.1813944,14.899375 26.6014812,14.5864062 27.1530516,14.7746875 L27.6368357,13.5932812" id="Fill-381" fill="#000066"></path>
                    <path d="M24.172338,13.5932812 C23.052054,13.44625 22.7324671,13.993125 22.431439,14.265 C22.4674554,14.045 22.5333545,13.8304687 22.5203005,13.61125 L21.0609272,13.61125 C20.8602418,14.9198437 20.5036948,16.2440625 20.225,17.5526562 L20.1518662,17.8367187 L21.804061,17.8367187 C21.9929507,16.9785937 22.2120376,15.683125 22.4646244,15.2909375 C22.7172113,14.899375 23.1371408,14.5864062 23.6887113,14.7746875 L24.172338,13.5932812" id="Fill-382" fill="#000066"></path>
                    <path d="M37.2025798,17.208125 C37.2025798,17.0317187 37.3464883,16.8885937 37.524054,16.8885937 C37.7014624,16.8885937 37.8455282,17.0317187 37.8455282,17.208125 C37.8455282,17.3845312 37.7014624,17.5273437 37.524054,17.5273437 C37.3464883,17.5273437 37.2025798,17.3845312 37.2025798,17.208125 L37.2025798,17.208125 Z M37.524054,17.4507812 C37.6588404,17.4507812 37.7684624,17.3420312 37.7684624,17.208125 C37.7684624,17.0740625 37.6588404,16.9654687 37.524054,16.9654687 C37.3892676,16.9654687 37.2794883,17.0740625 37.2794883,17.208125 C37.2794883,17.3420312 37.3892676,17.4507812 37.524054,17.4507812 L37.524054,17.4507812 Z M37.4806455,17.348125 L37.4147465,17.348125 L37.4147465,17.0673437 L37.5339624,17.0673437 C37.5586549,17.0673437 37.5842911,17.0679687 37.6059953,17.0820312 C37.6292723,17.0973437 37.6420117,17.1245312 37.6420117,17.151875 C37.6420117,17.18375 37.6234531,17.2132812 37.5930986,17.2245312 L37.645,17.348125 L37.5721808,17.348125 L37.5290869,17.2370312 L37.4806455,17.2370312 L37.4806455,17.348125 L37.4806455,17.348125 Z M37.4806455,17.1889062 L37.5171338,17.1889062 C37.5306596,17.1889062 37.5456009,17.1901562 37.5572394,17.18375 C37.5680915,17.1770312 37.5735962,17.1639062 37.5735962,17.1517187 C37.5735962,17.1409375 37.5668333,17.1284375 37.5580258,17.1226562 C37.5465446,17.11625 37.5278286,17.1178125 37.5154038,17.1178125 L37.4806455,17.1178125 L37.4806455,17.1889062 L37.4806455,17.1889062 Z" id="Fill-383" fill="#FFFFFF"></path>
                    <path d="M18.2920657,12.4275 C18.2032042,12.8157812 18.156493,13.0354687 18.0363333,13.5071875 C17.2878521,13.1923437 16.2844249,13.0278125 15.514554,13.5051562 C14.7882488,13.964375 14.5428967,14.68125 14.5955845,15.475 C14.6493732,15.8573437 14.937662,16.2303125 15.344223,16.3923437 C16.0486667,16.650625 16.7210258,16.5559375 17.4696643,16.1759375 C17.3631878,16.6542187 17.2828192,17.0295312 17.1898685,17.3714062 C16.292446,17.6201562 15.4400047,17.7021875 14.5428967,17.4057812 C13.7409413,17.12875 13.0891854,16.4115625 13.0360258,15.6373437 C12.8542136,14.3946875 13.4526526,13.1229687 14.6707629,12.5395312 C15.8031573,12.0332812 17.0950305,12.1210937 18.2920657,12.4275" id="Fill-384" fill="#FFFFFF"></path>
                    <path d="M30.9740962,16.845 C30.7372371,17.0803125 30.3350798,17.5953125 29.2426338,17.5953125 C28.2475423,17.5953125 27.6152887,16.8665625 27.9688474,15.229375 L28.3807559,13.3025 L29.8994225,13.3025 C29.8994225,13.3025 29.4867277,15.2310938 29.4871995,15.229375 C29.3470657,15.8851563 29.3804085,16.3840625 30.0508803,16.3840625 C30.8402535,16.3840625 31.0771127,15.9095313 31.226054,15.229375 C31.2251103,15.230625 31.6385915,13.3025 31.6385915,13.3025 L33.1567864,13.3025 L32.4748333,16.4003125 C32.3974531,16.7634375 32.3236901,17.1482813 32.2807535,17.5282813 L30.8550376,17.5282813 C30.8550376,17.5282813 30.945,17.011875 30.9740962,16.845" id="Fill-385" fill="#FFFFFF"></path>
                    <path d="M33.6605446,14.63875 C33.6605446,15.1746875 34.0147324,15.5409375 34.8198333,15.814375 C35.441392,16.0301562 35.5387465,16.0935937 35.5387465,16.2809375 C35.5387465,16.5485937 35.2609953,16.6621875 34.6623991,16.6621875 C34.2064531,16.6621875 33.7830634,16.6167187 33.292831,16.4995312 C33.292831,16.4995312 33.1000094,17.375625 33.0801925,17.4760937 C33.5065704,17.5514062 34.2441995,17.5953125 34.6729366,17.5953125 C36.2807793,17.5953125 37.0265869,17.1492187 37.0265869,16.1854687 C37.0265869,15.6089062 36.7140775,15.27 35.9509695,15.01 C35.3077066,14.8 35.2364601,14.7510937 35.2364601,14.5509375 C35.2364601,14.3265625 35.490777,14.2076562 35.9850986,14.2076562 C36.2821948,14.2076562 36.6988216,14.2326562 37.0860376,14.2726562 L37.2991479,13.2920312 C36.9042254,13.2453125 36.3023263,13.2078125 35.955216,13.2078125 C34.2486033,13.2078125 33.6550399,13.860625 33.6605446,14.63875" id="Fill-386" fill="#FFFFFF"></path>
                    <polyline id="Fill-387" fill="#FFFFFF" points="18.9370587 13.3025 20.4604437 13.3025 19.5548427 17.5282813 18.0319296 17.5282813 18.9370587 13.3025"></polyline>
                    <path d="M27.9477723,13.2845313 C26.8274883,13.1373438 26.5079014,13.6842188 26.206716,13.9560938 C26.2427324,13.7360938 26.3087887,13.52125 26.2955775,13.3025 L24.9022606,13.3025 C24.7017324,14.6107813 24.3450282,15.9348438 24.0664906,17.24375 L23.9933568,17.5276562 L25.579338,17.5276562 C25.768385,16.6695313 25.9873146,15.3740625 26.2400587,14.9821875 C26.4924883,14.5903125 26.9125751,14.2775 27.463831,14.4657813 L27.9477723,13.2845313" id="Fill-388" fill="#FFFFFF"></path>
                    <path d="M24.4835892,13.2845313 C23.3631479,13.1373438 23.043561,13.6842188 22.7423756,13.9560938 C22.778392,13.7360938 22.8446056,13.52125 22.8312371,13.3025 L21.4379202,13.3025 C21.237392,14.6107813 20.8810023,15.9348438 20.601993,17.24375 L20.5290164,17.5276562 L22.1148404,17.5276562 C22.3040446,16.6695313 22.5228169,15.3740625 22.7758756,14.9821875 C23.0281479,14.5903125 23.4482347,14.2775 23.9996479,14.4657813 L24.4835892,13.2845313" id="Fill-389" fill="#FFFFFF"></path>
                </g>
            </g>
        </g>
    </g>
</svg>
