<?xml version="1.0" encoding="UTF-8"?>
<svg width="50px" height="32px" viewBox="0 0 50 32" version="1.1" xmlns="http://www.w3.org/2000/svg" xmlns:xlink="http://www.w3.org/1999/xlink">
    <!-- Generator: Sketch 49.3 (51167) - http://www.bohemiancoding.com/sketch -->
    <title>icon_payment_unionpay_black</title>
    <desc>Created with Sketch.</desc>
    <defs></defs>
    <g id="Stylesheets---FrontEnd" stroke="none" stroke-width="1" fill="none" fill-rule="evenodd">
        <g id="Payment-Cards" transform="translate(-157.000000, -396.000000)">
            <g id="Payment/UnionPay/Black" transform="translate(157.000000, 397.000000)">
                <g id="UnionPay-dark">
                    <rect id="Rectangle" fill="#FFFFFF" x="0" y="0" width="49.9676136" height="29.5081967" rx="1.09672506"></rect>
                    <rect id="Rectangle-19" fill="#363436" x="0" y="0" width="50" height="30" rx="3"></rect>
                    <path d="M19.2801419,0 C17.7233478,0.0325833597 15.7646065,1.31584039 15.4125878,2.89889813 C15.4125878,2.89889813 15.1536416,4.07116432 14.9394379,5.04087828 M12.2529422,17.2028174 C11.6079871,20.1225711 10.0667843,27.0996954 10.0667843,27.0996954 C9.71333075,28.6857045 10.6727645,29.9762519 12.2129987,30 M27.3316375,30 C25.7904317,29.9762519 24.8323961,28.6857045 25.1845499,27.0996954 C25.1845499,27.0996954 25.4726874,25.7948943 25.6167562,25.1424938 M30.0274432,5.16915548 C30.3387863,3.75927037 30.5287812,2.89889813 30.5287812,2.89889813 C30.880935,1.32756155 32.8144786,0.0532464122 34.3669431,0.00457163917" id="path20" stroke="#FFFFFF" stroke-linecap="round"></path>
                    <path d="M21.9792421,17.2992771 L22.1755081,17.2992771 C22.3558565,17.2992771 22.4771884,17.2387657 22.5340673,17.1189471 L23.0440496,16.3556947 L24.4097602,16.3556947 L24.1249717,16.8577031 L25.7624656,16.8577031 L25.5547465,17.6268763 L23.606252,17.6268763 C23.3818379,17.9644926 23.1055899,18.1232161 22.7734322,18.1044048 L21.758515,18.1044048 L21.9792417,17.2992771 L21.9792421,17.2992771 Z M21.7550208,18.4016802 L25.3425601,18.4016802 L25.1138733,19.2372086 L23.6710933,19.2372086 L23.4509494,20.0436955 L24.8549032,20.0436955 L24.6262164,20.8791446 L23.2222626,20.8791446 L22.8961217,22.0708697 C22.8153626,22.2700692 22.9215539,22.3596424 23.2129447,22.3393167 L24.3571514,22.3393167 L24.1451596,23.1156918 L21.9483757,23.1156918 C21.5319635,23.1156918 21.3891224,22.8774904 21.5197343,22.3999832 L21.936726,20.8791446 L21.0392981,20.8791446 L21.2672669,20.0436955 L22.1648298,20.0436955 L22.3847817,19.2372086 L21.5269171,19.2372086 L21.755021,18.4016802 L21.7550208,18.4016802 Z M27.4811072,16.3500058 L27.4246145,16.8391238 C27.4246145,16.8391238 28.1013546,16.3310392 28.7159738,16.3310392 L30.9871114,16.3310392 L30.1185698,19.4750983 C30.0465456,19.8345356 29.737685,20.0132744 29.1921751,20.0132744 L26.6179994,20.0132744 L26.01503,22.2210098 C25.9802798,22.3393142 26.0293955,22.3999807 26.1592679,22.3999807 L26.6657548,22.3999807 L26.4795839,23.0852707 L25.1919142,23.0852707 C24.6976576,23.0852707 24.4920713,22.9366424 24.5736077,22.638085 L26.2774928,16.3500058 L27.4811046,16.3500058 L27.4811069,16.3500058 L27.4811072,16.3500058 Z M29.4043613,17.2387657 L27.3772453,17.2387657 L27.134776,18.0871267 C27.134776,18.0871267 27.47237,17.843393 28.0365155,17.8346757 C28.5991067,17.8258625 29.2412908,17.8346757 29.2412908,17.8346757 L29.4043613,17.2387657 L29.4043613,17.2387657 Z M28.6699648,19.2067877 C28.8198332,19.2271134 28.9036968,19.167806 28.913792,19.0278357 L29.0378419,18.5806322 L27.0076214,18.5806322 L26.8373683,19.2067877 L28.6699648,19.2067877 L28.6699648,19.2067877 Z M27.3005644,20.2225883 L28.4707863,20.2225883 L28.4490438,20.7289831 L28.7606225,20.7289831 C28.9180624,20.7289831 28.9961035,20.6785684 28.9961035,20.5790753 L29.0883157,20.251476 L30.0609112,20.251476 L29.9310387,20.7289831 C29.8211599,21.127266 29.5299635,21.3350464 29.0566722,21.3553721 L28.4333181,21.3553721 L28.4304056,22.2210099 C28.4189525,22.3596401 28.5443603,22.4303047 28.8025554,22.4303047 L29.3884436,22.4303047 L29.1993579,23.1156919 L27.7940462,23.1156919 C27.4001537,23.1344251 27.2069944,22.9467381 27.2110703,22.5486093 L27.3005644,20.2225884 L27.3005644,20.2225883 Z" id="path24" fill="#FFFFFF"></path>
                    <path d="M13.1201354,12.1612207 C12.9614135,12.938956 12.5934782,13.5363033 12.0227518,13.9605021 C11.4572097,14.3775193 10.7277626,14.5866589 9.8347022,14.5866589 C8.99425116,14.5866589 8.37809931,14.3731128 7.98490606,13.9445832 C7.71221034,13.640106 7.57655211,13.2534315 7.57655211,12.7859214 C7.57655211,12.5926226 7.59969221,12.3848422 7.64587595,12.1612209 L8.59740902,7.57292816 L10.0345212,7.57292816 L9.0959371,12.1092703 C9.06705026,12.2348358 9.05551904,12.3517042 9.05703326,12.4570399 C9.05551904,12.6893974 9.11321444,12.8798039 9.23008157,13.0283539 C9.40033424,13.24918 9.67666037,13.3587683 10.0611946,13.3587683 C10.5033864,13.3587683 10.8677504,13.2506362 11.1505412,13.0326833 C11.4333901,12.8162639 11.6180473,12.5089902 11.7009992,12.1092701 L12.6425348,7.57292801 L14.0723664,7.57292801 L13.1201354,12.1612207" id="path28" fill="#FFFFFF"></path>
                    <path d="M19.1555493,10.3561534 L20.281062,10.3561534 L19.3994358,14.4510762 L18.2761365,14.4510762 L19.1555493,10.3561534 M19.5098382,8.86430019 L20.645368,8.86430019 L20.4332611,9.85826128 L19.2978084,9.85826128 L19.5098382,8.86430019" id="path34" fill="#FFFFFF"></path>
                    <path d="M21.2773421,14.139396 C20.982962,13.8580585 20.8343352,13.4785871 20.8328991,12.9966722 C20.8328991,12.9143789 20.8379075,12.8206516 20.848818,12.7181299 C20.8596691,12.6142301 20.8733948,12.5132228 20.8928079,12.4194954 C21.0262729,11.7543569 21.3105579,11.2262572 21.7484201,10.8366324 C22.1856032,10.4456295 22.7130579,10.2493805 23.3305872,10.2493805 C23.8362992,10.2493805 24.237372,10.3908069 24.5310922,10.6736006 C24.824618,10.9578884 24.9717708,11.3416113 24.9717708,11.8294483 C24.9717708,11.9130021 24.965363,12.0097002 24.9544929,12.1135808 C24.9414853,12.2189167 24.9257618,12.319924 24.9075124,12.4194953 C24.777057,13.0745386 24.4936263,13.5968914 24.0556657,13.9793145 C23.6177076,14.3645516 23.0918052,14.5563159 22.4785462,14.5563159 C21.9707014,14.5563159 21.5709841,14.4178601 21.2773421,14.1393959 M23.4222163,13.3285026 C23.62062,13.1135203 23.7627228,12.7873572 23.8493044,12.35314 C23.8623119,12.2853487 23.873765,12.2146071 23.8809479,12.1439235 C23.8881306,12.0746179 23.891043,12.0097 23.891043,11.9505477 C23.891043,11.6980198 23.8267869,11.5018476 23.6976894,11.3632958 C23.5693691,11.2233066 23.3868856,11.1541373 23.151016,11.1541373 C22.839243,11.1541373 22.5853182,11.2636475 22.386334,11.4830363 C22.1856032,11.7024264 22.0435005,12.034258 21.9540041,12.4757741 C21.9417737,12.5435654 21.9316809,12.6114336 21.9223606,12.6777889 C21.9151779,12.7455802 21.9130426,12.809062 21.914403,12.866758 C21.914403,13.1178499 21.978659,13.3112255 22.1077566,13.4482442 C22.2360768,13.5853601 22.4177831,13.6531513 22.6567595,13.6531513 C22.9698928,13.6531513 23.2238151,13.544941 23.4222163,13.3285024" id="path36" fill="#FFFFFF"></path>
                    <path d="M32.2742006,17.3339494 L32.5455953,16.3788153 L33.9177138,16.3788153 L33.8585029,16.7293221 C33.8585029,16.7293221 34.5597037,16.3788153 35.0646386,16.3788153 L36.7613434,16.3788153 L36.4916952,17.3339494 L36.2247652,17.3339494 L34.9448588,21.8386662 L35.2117889,21.8386662 L34.9578664,22.7332699 L34.6909364,22.7332699 L34.5798941,23.1213793 L33.2510665,23.1213793 L33.3619168,22.7332699 L30.7403719,22.7332699 L30.9958488,21.8386662 L31.2585086,21.8386662 L32.5395785,17.3339494 L32.2742007,17.3339494 L32.2742006,17.3339494 Z M33.7546433,17.3339494 L33.405402,18.5531035 C33.405402,18.5531035 34.0029376,18.3237936 34.5179651,18.2588756 C34.6317278,17.8331423 34.7804304,17.3339492 34.7804304,17.3339492 L33.7546432,17.3339492 L33.7546433,17.3339494 Z M33.2436918,19.1245917 L32.8932846,20.4015403 C32.8932846,20.4015403 33.5554649,20.0754553 34.009926,20.0480038 C34.1411587,19.5544805 34.2725858,19.1245919 34.2725858,19.1245919 L33.2436918,19.1245919 L33.2436918,19.1245917 Z M33.5005267,21.8386662 L33.763184,20.9123618 L32.7389514,20.9123618 L32.4749315,21.8386662 L33.5005267,21.8386662 L33.5005267,21.8386662 Z M36.8191941,16.3196821 L38.1091932,16.3196821 L38.1639395,16.7956773 C38.1553965,16.9168552 38.2274206,16.9747253 38.380396,16.9747253 L38.6083055,16.9747253 L38.3776778,17.7812121 L37.429543,17.7812121 C37.0674883,17.7999453 36.881315,17.6615486 36.8640394,17.3627588 L36.8191941,16.3196821 L36.8191941,16.3196821 Z M36.4412218,18.0496592 L40.6196958,18.0496592 L40.3745083,18.9154333 L39.0441284,18.9154333 L38.8160245,19.7204046 L40.1450464,19.7204046 L39.8983045,20.5847627 L38.4180561,20.5847627 L38.0831803,21.0913329 L38.8076783,21.0913329 L38.975019,22.1055989 C38.9950126,22.2066062 39.0845092,22.2556633 39.2374843,22.2556633 L39.4624815,22.2556633 L39.2260289,23.0909583 L38.4295115,23.0909583 C38.016789,23.111284 37.8034393,22.972751 37.785967,22.6741178 L37.5939712,21.7478111 L36.9347034,22.7332701 C36.7788156,23.0117152 36.5392563,23.1416292 36.2162246,23.1213794 L34.9997996,23.1213794 L35.2364441,22.285852 L35.615971,22.285852 C35.7718588,22.285852 35.9015369,22.2166045 36.0184041,22.0766923 L37.0502105,20.5847627 L35.7198306,20.5847627 L35.9663783,19.7204046 L37.4093527,19.7204046 L37.6388144,18.9154333 L36.1944821,18.9154333 L36.4412218,18.0496592 L36.4412218,18.0496592 Z" id="path26" fill="#FFFFFF"></path>
                    <path d="M14.4439333,10.3547173 L15.4589464,10.3547173 L15.3428565,10.9462787 L15.4885329,10.77748 C15.817565,10.425459 16.2172029,10.2508175 16.689038,10.2508175 C17.116126,10.2508175 17.4241537,10.3749658 17.6175274,10.6245233 C17.8079307,10.8741779 17.8598806,11.2190552 17.7698035,11.6620085 L17.2106096,14.4525134 L16.1674473,14.4525134 L16.6724199,11.9231756 C16.7244481,11.6620087 16.7100434,11.4671955 16.6298093,11.3416111 C16.5505644,11.2161049 16.3989671,11.1541373 16.1804146,11.1541373 C15.9120485,11.1541373 15.6862161,11.2377114 15.5022574,11.4037149 C15.3175225,11.5710762 15.195667,11.8034338 15.1357582,12.099176 L14.6704447,14.4525134 L13.6251082,14.4525134 L14.4439333,10.3547173" id="path30" fill="#FFFFFF"></path>
                    <path d="M26.084142,10.3547173 L27.1000284,10.3547173 L26.9847157,10.9462787 L27.1287616,10.77748 C27.4580069,10.425459 27.859082,10.2508175 28.329461,10.2508175 C28.756549,10.2508175 29.0652177,10.3749658 29.2570167,10.6245233 C29.4462944,10.8741779 29.5010407,11.2190552 29.408634,11.6620085 L28.8516712,14.4525134 L27.8070539,14.4525134 L28.3121828,11.9231756 C28.3640143,11.6620087 28.3496487,11.4671955 28.2702499,11.3416111 C28.1879386,11.2161049 28.0392337,11.1541373 27.8216137,11.1541373 C27.5531314,11.1541373 27.3281321,11.2377114 27.1419611,11.4037149 C26.9571482,11.5710762 26.8346526,11.8034338 26.776994,12.099176 L26.3095275,14.4525134 L25.2654908,14.4525134 L26.0841417,10.3547173" id="path32" fill="#FFFFFF"></path>
                    <path d="M31.105531,7.81520537 L34.0547688,7.81520537 C34.6218245,7.81520537 35.0603657,7.94372117 35.3618516,8.19609391 C35.6619773,8.45157339 35.8122344,8.81809641 35.8122344,9.29566343 L35.8122344,9.31002911 C35.8122344,9.40088376 35.8062176,9.50338468 35.7976746,9.61443054 C35.7831148,9.72411437 35.7642847,9.83515838 35.7400184,9.95066759 C35.6101459,10.582667 35.3084656,11.0905963 34.8425514,11.4758335 C34.3748906,11.8596156 33.8210346,12.0529913 33.1833149,12.0529913 L31.6017284,12.0529913 L31.1127136,14.4525123 L29.7433133,14.4525123 L31.1055308,7.81520552 M31.8426453,10.898735 L33.1543894,10.898735 C33.4962537,10.898735 33.7674541,10.8192572 33.9652723,10.6620681 C34.1615407,10.5033446 34.2914132,10.260989 34.363435,9.93203177 C34.3748904,9.87126802 34.3820731,9.8165224 34.3908081,9.76604723 C34.3952728,9.71848499 34.4009032,9.67072846 34.4009032,9.62471788 C34.4009032,9.38942899 34.317426,9.21917586 34.1498908,9.11240278 C33.9825501,9.00407508 33.720087,8.95224316 33.3562834,8.95224316 L32.24236,8.95224316 L31.842645,10.898735" id="path38" fill="#FFFFFF"></path>
                    <path d="M41.9413379,15.2447305 C41.508425,16.1652111 41.0958968,16.7018729 40.8536217,16.9515085 C40.610958,17.1983479 40.1306783,17.7726324 38.9734641,17.7292629 L39.0730534,17.0266569 C40.0468148,16.726527 40.5734921,15.3744113 40.8736178,14.7757061 L40.5158334,10.3662488 L41.2690623,10.3561546 L41.9009571,10.3561546 L41.968903,13.1221784 L43.1532959,10.3561546 L44.352443,10.3561546 L41.9413378,15.2447305" id="path40" fill="#FFFFFF"></path>
                    <path d="M38.5883091,10.6894413 L38.111911,11.0170406 C37.614159,10.627494 37.1596979,10.3864973 36.2826156,10.7933411 C35.0877387,11.3473769 34.0893246,15.5967517 37.3790667,14.1971122 L37.5665978,14.4192974 L38.8608672,14.4525136 L39.710773,10.5913075 L38.5883091,10.6894415 M37.8523581,12.8004031 C37.6444447,13.4136693 37.1800825,13.8190769 36.8164758,13.7036648 C36.4528689,13.591126 36.3229942,12.9994675 36.5336256,12.3848421 C36.7413471,11.7701408 37.2088136,11.3661694 37.5695079,11.4816005 C37.9331172,11.5941393 38.0643499,12.1857007 37.8523581,12.8004031" id="path42" fill="#FFFFFF"></path>
                </g>
            </g>
        </g>
    </g>
</svg>