<?xml version="1.0" encoding="UTF-8"?>
<svg width="50px" height="30px" viewBox="0 0 50 30" version="1.1" xmlns="http://www.w3.org/2000/svg" xmlns:xlink="http://www.w3.org/1999/xlink">
    <!-- Generator: Sketch 49.3 (51167) - http://www.bohemiancoding.com/sketch -->
    <title>icon_payment_maestro_blue</title>
    <desc>Created with Sketch.</desc>
    <defs></defs>
    <g id="Stylesheets---FrontEnd" stroke="none" stroke-width="1" fill="none" fill-rule="evenodd">
        <g id="Payment-Cards" transform="translate(-92.000000, -151.000000)">
            <g id="Payment/Maestro/Blue" transform="translate(92.000000, 151.000000)">
                <g id="Maestro-dark">
                    <rect id="Rectangle" fill="#2E556D" x="0" y="0" width="50" height="30" rx="3"></rect>
                    <path d="M28.4384566,16.170464 C28.3576071,16.8509181 28.2071633,17.5102178 27.9944836,18.1410937 L22.4767347,18.1410937 C22.597838,18.4995312 22.7387582,18.8490625 22.8982371,19.188125 L27.5731385,19.188125 C27.4026502,19.549375 27.2110869,19.8989062 26.999392,20.2351562 L23.4718263,20.2351562 C23.7022371,20.6004687 23.9557676,20.9501562 24.2306878,21.2815625 L26.2406878,21.2815625 C25.9319531,21.6545312 25.5956948,22.0048437 25.2356878,22.3285937 C23.4697103,23.9188502 21.1261596,24.8875 18.5548756,24.8875 C13.0585164,24.8875 8.60270188,20.4609375 8.60270188,15.0001562 C8.60270188,9.54 13.0585164,5.113125 18.5548756,5.113125 C21.1261467,5.113125 23.4696868,6.08183346 25.2358981,7.67187135 C24.875838,7.99609375 24.5398944,8.34640625 24.2306878,8.71875 L26.2410023,8.71875 C26.515986,9.05033855 26.7696049,9.40006065 26.9998153,9.76581178 L23.4718263,9.76578125 C23.2606033,10.1020312 23.0685681,10.45125 22.8985516,10.8128125 L27.5731385,10.8128125 C27.7326174,11.151875 27.8736948,11.5009375 27.9944836,11.8592187 L22.4767347,11.8592187 C22.3617653,12.2007812 22.2653545,12.5498437 22.1878169,12.9064062 L28.2832441,12.9064062 C28.397662,13.4332923 28.4701074,13.975601 28.4963915,14.5299141 C28.5038069,14.6857361 28.5075211,14.8425156 28.5075211,15.0001562 C28.5075211,15.3961347 28.4840909,15.786675 28.4385327,16.1704838 Z" id="Combined-Shape" fill="#FFFFFF"></path>
                    <path d="M25.2359246,22.3288069 C26.9617866,20.7750911 28.1363914,18.628051 28.4335544,16.2116817 C28.4823496,15.8146116 28.5075211,15.4102945 28.5075211,15.0001562 C28.5075211,14.8205469 28.5026652,14.6420703 28.493091,14.4648389 C28.4008013,12.7450969 27.8660077,11.1419909 26.9998153,9.76581178 C26.7692958,9.39984375 26.5162371,9.05078125 26.2410023,8.71875 C25.9319569,8.34591292 25.5959217,7.99598385 25.2358981,7.67187135 C27.0022153,6.08215178 29.3452758,5.113125 31.9163427,5.113125 C37.4128592,5.113125 41.8686737,9.54 41.8686737,15.0001562 C41.8686737,20.4609375 37.4128592,24.8875 31.9163427,24.8875 C29.3451361,24.8875 27.0021179,23.9186804 25.2359246,22.3288069 Z" id="Combined-Shape" fill="#FFFFFF"></path>
                    <path d="M25.3341315,17.3837783 C24.9083855,17.4971818 24.4961902,17.5525391 24.0608326,17.5515901 C22.6712492,17.5503248 21.947544,16.9148225 21.947544,15.699966 C21.947544,14.2804455 22.8686807,13.236406 24.1191324,13.236406 C25.1422149,13.236406 25.7953301,13.8217704 25.7953301,14.7388044 C25.7953301,15.0431116 25.7510538,15.3390361 25.6429628,15.7589612 L23.1719972,15.7589612 C23.0839172,16.3517592 23.5151781,16.6127296 24.249913,16.6127296 C24.6899976,16.6127296 25.0881694,16.5333313 25.5288843,16.3550807 L25.3341315,17.3837783 L25.3341315,17.3837783 Z M24.6696715,14.9217999 C24.6696715,14.832121 24.8070699,14.1951952 24.0921884,14.1812768 C23.6973255,14.1812768 23.4141776,14.4447778 23.2993113,14.9217999 L24.6696715,14.9217999 L24.6696715,14.9217999 Z" id="Fill-366" fill="#2E556D"></path>
                    <path d="M26.1716001,14.6431152 C26.1716001,15.1675865 26.4654626,15.5296236 27.1338618,15.7996093 C27.6451667,16.009809 27.7253683,16.0705439 27.7253683,16.2578099 C27.7253683,16.5184639 27.4995748,16.6377195 26.9986693,16.6347143 C26.621769,16.6318674 26.2781154,16.5858417 25.8730106,16.4730709 L25.6932267,17.4291713 C26.0538976,17.5134727 26.5595301,17.5409932 27.0070203,17.5515901 C28.3414552,17.5515901 28.9578573,17.1128436 28.9578573,16.1644932 C28.9578573,15.5947871 28.700708,15.2593216 28.0669735,15.009739 C27.5372333,14.797325 27.4749943,14.750983 27.4749943,14.5591302 C27.4749943,14.3332723 27.6851887,14.2186035 28.0942326,14.2186035 C28.3424006,14.2186035 28.6818,14.2418536 29.0043396,14.2810782 L29.185069,13.319442 C28.8566993,13.2731 28.35863,13.2368805 28.07044,13.2368805 C26.6564338,13.2368805 26.1671882,13.8753879 26.1716001,14.6431152" id="Fill-367" fill="#2E556D"></path>
                    <path d="M21.2701635,17.482947 L20.2332151,17.482947 L20.2582682,17.0470475 C19.9420313,17.3905794 19.5211698,17.5506412 18.9496743,17.5506412 C18.2735543,17.5506412 17.8098347,17.0865884 17.8098347,16.4189789 C17.8098347,15.404516 18.6153171,14.8191516 20.0000159,14.8191516 C20.1422989,14.8191516 20.3231858,14.8300649 20.50943,14.8503099 C20.5478764,14.7147635 20.5581182,14.6567173 20.5581182,14.5828548 C20.5581182,14.3044865 20.3403606,14.2026289 19.7578354,14.2026289 C19.1831886,14.2050014 18.7955738,14.290568 18.4360059,14.3876806 L18.6126385,13.4565701 C19.2348706,13.2977736 19.6418661,13.236406 20.1030647,13.236406 C21.1753082,13.236406 21.7414464,13.658229 21.7414464,14.4515788 C21.7507428,14.6635184 21.6770015,15.0875556 21.6404459,15.274189 C21.5980604,15.544491 21.3010466,17.1128436 21.2701635,17.482947 L21.2701635,17.482947 Z M20.3600565,15.6316393 C20.2289608,15.6180372 20.1716064,15.6145576 20.0814781,15.6145576 C19.3747901,15.6145576 19.0161676,15.8255481 19.0161676,16.2423099 C19.0161676,16.5047037 19.1913821,16.6687196 19.4636579,16.6687196 C19.971969,16.6687196 20.338785,16.2416772 20.3600565,15.6316393 L20.3600565,15.6316393 Z" id="Fill-368" fill="#2E556D"></path>
                    <path d="M31.1418935,17.4171509 C30.8017064,17.5107839 30.5366787,17.5515901 30.2499067,17.5515901 C29.6149117,17.5515901 29.2684219,17.2256145 29.2684219,16.6454695 C29.2482533,16.4860403 29.4034568,15.7496295 29.4385943,15.544491 C29.4738893,15.3387198 30.0239557,12.3389844 30.0239557,12.3389844 L31.2575477,12.3389844 L31.0711459,13.3313043 L31.703935,13.3313043 L31.5318718,14.3443437 L30.8964041,14.3443437 C30.8964041,14.3443437 30.5473932,16.1026512 30.5473932,16.2364578 C30.5473932,16.4502953 30.6761255,16.5423467 30.9715636,16.5423467 C31.1127436,16.5423467 31.22178,16.5296936 31.306551,16.504071 L31.1418935,17.4171509" id="Fill-369" fill="#2E556D"></path>
                    <path d="M37.2780251,15.0544994 C37.2780251,15.9903549 36.8957676,16.5442446 36.2918133,16.5442446 C35.8517286,16.5505712 35.5849677,16.1803096 35.5849677,15.6254709 C35.5849677,14.9681419 35.9743158,14.2250882 36.5998568,14.2250882 C37.104859,14.2250882 37.2780251,14.6269825 37.2780251,15.0544994 L37.2780251,15.0544994 Z M38.6097814,15.0807546 C38.6097814,14.0450977 37.9317706,13.236406 36.6548476,13.236406 C35.1858505,13.236406 34.2357215,14.2192361 34.2357215,15.6672261 C34.2357215,16.7035156 34.7960298,17.5515901 36.1882918,17.5515901 C37.592844,17.5515901 38.6097814,16.7984139 38.6097814,15.0807546 L38.6097814,15.0807546 Z" id="Fill-370" fill="#2E556D"></path>
                    <path d="M32.2409233,13.3308298 C32.0841442,14.6149621 31.8065111,15.9168087 31.5896989,17.2033134 L31.5373867,17.4835797 L32.7834265,17.4835797 C33.2324924,14.9986676 33.3832841,14.2908844 34.3244317,14.5399924 L34.7771217,13.3643606 C34.12054,13.1225281 33.6981029,13.4679579 33.3156878,13.9588985 C33.350195,13.7379436 33.4151126,13.5245805 33.3995135,13.3308298 L32.2409233,13.3308298" id="Fill-371" fill="#2E556D"></path>
                    <polyline id="Fill-372" fill="#2E556D" points="17.2293578 17.4835797 15.9885177 17.4835797 16.7259313 13.5826267 15.0276742 17.4835797 13.8963431 17.4835797 13.6894576 13.6054023 12.949523 17.4835797 11.8237068 17.4835797 12.782502 12.4092091 14.7221518 12.4092091 14.8245703 15.5506594 16.1898883 12.4092091 18.2075338 12.4092091 17.2293578 17.4835797"></polyline>
                </g>
            </g>
        </g>
    </g>
</svg>