<?xml version="1.0" encoding="UTF-8"?>
<svg width="50px" height="30px" viewBox="0 0 50 30" version="1.1" xmlns="http://www.w3.org/2000/svg" xmlns:xlink="http://www.w3.org/1999/xlink">
    <!-- Generator: Sketch 49.3 (51167) - http://www.bohemiancoding.com/sketch -->
    <title>icon_payment_Alipay_grey</title>
    <desc>Created with Sketch.</desc>
    <defs></defs>
    <g id="Stylesheets---FrontEnd" stroke="none" stroke-width="1" fill="none" fill-rule="evenodd">
        <g id="Payment-Cards" transform="translate(-222.000000, -28.000000)">
            <g id="Payment/Alipay/Grey" transform="translate(222.000000, 28.000000)">
                <g id="Alipay">
                    <rect id="path-1" fill-opacity="0.2" fill="#363436" x="0" y="0" width="50" height="30" rx="3"></rect>
                    <path d="M29.1666667,11.6666667 C29.1666667,12.1269173 28.7935804,12.5 28.3333557,12.5 C27.873131,12.5 27.5,12.1269173 27.5,11.6666667 C27.5,11.206416 27.873131,10.8333333 28.3333557,10.8333333 C28.7935804,10.8333333 29.1666667,11.206416 29.1666667,11.6666667" id="Fill-1" fill="#FFFFFF"></path>
                    <path d="M25,11.1879232 L25,17.5 L26.6666667,17.5 L26.6666667,10.8333333 L25.3876628,10.8333333 C25.1735911,10.8333333 25,10.9921147 25,11.1879232" id="Fill-2" fill="#FFFFFF"></path>
                    <path d="M27.5,12.8624242 L27.5,17.5 L29.1666667,17.5 L29.1666667,12.5 L27.887674,12.5 C27.6735481,12.5 27.5,12.6622896 27.5,12.8624242" id="Fill-3" fill="#FFFFFF"></path>
                    <path d="M32.42048,16.8899526 C32.1079279,16.8899526 31.7769491,16.6067407 31.5227482,16.3235288 L31.5227482,13.8119684 C31.7597947,13.5862484 32.1627254,13.2625356 32.5113412,13.2625356 C33.0340894,13.2625356 33.5227482,13.9487798 33.5227482,14.9509563 C33.5227482,15.9531327 33.0454526,16.8899526 32.42048,16.8899526 Z M32.9205019,12.5 C32.2267802,12.5 31.7385601,12.8444048 31.5227482,13.0330305 L31.5227482,12.6089277 L30.3541877,12.6089277 C30.1585575,12.6089277 30,12.7609637 30,12.9484539 L30,19.1666667 L31.5227482,19.1666667 L31.5227482,17.1041069 C31.7538279,17.2717461 32.0665555,17.3910618 32.4886588,17.3910618 C33.9090949,17.3910618 35,16.2146011 35,14.733143 C35,13.2516429 33.8750055,12.5 32.9205019,12.5 Z" id="Fill-4" fill="#FFFFFF"></path>
                    <path d="M37.8532174,16.8652404 C37.2609832,16.8652404 36.8908215,16.4977729 36.8908215,15.8184718 C36.8908215,15.1392137 37.5465458,14.7160263 38.064715,14.7160263 C38.3256165,14.7160263 38.4866895,14.8033896 38.582925,14.890194 L38.582925,16.5507412 C38.4160542,16.703412 38.1667483,16.8652404 37.8532174,16.8652404 Z M37.9378164,12.5 C36.6898987,12.5 36.2774784,12.7783845 36.2774784,12.7783845 L36.4255675,13.1124888 C36.4255675,13.1124888 36.8908215,12.9343228 37.6522946,12.9343228 C38.4982852,12.9343228 38.582925,13.413144 38.582925,14.0033191 L38.582925,14.278651 C38.4017638,14.2225442 38.0546301,14.1369867 37.6205292,14.1369867 C36.9754614,14.1369867 35.8333333,14.4042357 35.8333333,15.7962011 C35.8333333,17.1882094 36.8485628,17.5 37.5147803,17.5 C37.9047036,17.5 38.3114895,17.286794 38.582925,17.1096168 L38.582925,17.3997816 L40,17.3997816 L40,14.0033191 C40,13.001135 39.1856933,12.5 37.9378164,12.5 Z" id="Fill-5" fill="#FFFFFF"></path>
                    <path d="M45.8333333,12.5004366 L44.9132215,12.5004366 L43.678953,15.6072177 L43.6449026,15.5339203 L42.2378934,12.5 L40.8333333,12.5 L43.030731,17.2387951 L42.8061246,17.80422 C42.4596952,18.5639115 41.4672558,18.5130093 41.4672558,18.5130093 L41.4672558,19.1490687 C41.4672558,19.1490687 41.8943871,19.1886641 42.2038825,19.1490687 C42.4985648,19.1113941 43.1550426,18.8947759 43.474216,18.1458673 L43.4742555,18.1459109 L44.1298643,16.5773719 L44.1297458,16.5771973 L45.8333333,12.5004366" id="Fill-6" fill="#FFFFFF"></path>
                    <path d="M21.8542171,15.9299488 L19.2133501,15.9299488 L20.5573203,13.0177791 L21.8542171,15.9299488 Z M21.1978459,10.8333333 L20.5770009,10.8333333 L17.5,17.5 L18.48875,17.5 L18.9980857,16.3964003 L22.0619381,16.3964003 L22.5534052,17.5 L24.1666667,17.5 L21.3786377,11.2388153 L21.1978459,10.8333333 Z" id="Fill-7" fill="#FFFFFF"></path>
                    <g id="Group-10" transform="translate(4.166667, 9.166667)" fill="#FFFFFF">
                        <path d="M11.6666667,8.06470916 C10.4079034,7.62863546 9.08249693,7.11990446 7.81439074,6.68387406 C8.41113651,5.52646666 8.80675273,4.30449904 8.80675273,4.30449904 L6.5036415,4.30449904 L6.5036415,3.48487446 L9.34225534,3.48487446 L9.34225534,2.98558285 L6.5036415,2.98558285 L6.5036415,1.66666667 L5.18222077,1.66666667 L5.18222077,2.98558285 L2.34360693,2.98558285 L2.34360693,3.48487446 L5.18222077,3.48487446 L5.18222077,4.30449904 L2.79515199,4.30449904 L2.79515199,4.74321403 L7.40810305,4.74321403 C7.40810305,4.74321403 7.15233037,5.53724834 6.723414,6.32322886 C5.48595082,5.93695009 4.34435954,5.66779766 3.42789793,5.66779766 C1.2300015,5.66779766 0.74245627,6.78346393 0.846342491,7.80361052 C0.930300043,8.6178226 1.52970296,9.80614617 3.36129761,9.80614617 C5.03436291,9.80614617 6.38505521,8.8371801 7.21627354,7.68384289 C8.79842291,8.41992454 10.4694621,9.32630457 11.6598654,9.99617237 C11.578774,10.9326318 10.7937386,11.6666667 9.83735352,11.6666667 L1.8293562,11.6666667 C0.819008043,11.6666667 0,10.8475249 0,9.83706484 L0,1.82955876 C0,0.819098729 0.819008043,0 1.8293562,0 L9.83735352,0 C10.8477017,0 11.6666667,0.819098729 11.6666667,1.82955876 L11.6666667,8.06470916 Z" id="Combined-Shape"></path>
                        <path d="M3.92818679,9.11711421 C2.38035067,9.11711421 2.14060664,8.23561403 2.11394937,7.70943315 C2.08862067,7.24915479 2.39633646,6.38514777 4.14401641,6.38514777 C4.79407672,6.38514777 5.82505317,6.72024601 6.98263025,7.20875594 C6.3285842,8.07678985 5.28025052,9.11711421 3.92818679,9.11711421 Z" id="Fill-11"></path>
                    </g>
                </g>
            </g>
        </g>
    </g>
</svg>