<?xml version="1.0" encoding="UTF-8"?>
<svg width="50px" height="30px" viewBox="0 0 50 30" version="1.1" xmlns="http://www.w3.org/2000/svg" xmlns:xlink="http://www.w3.org/1999/xlink">
    <!-- Generator: Sketch 49.3 (51167) - http://www.bohemiancoding.com/sketch -->
    <title>icon_payment_cirrus_black</title>
    <desc>Created with Sketch.</desc>
    <defs></defs>
    <g id="Stylesheets---FrontEnd" stroke="none" stroke-width="1" fill="none" fill-rule="evenodd">
        <g id="Payment-Cards" transform="translate(-157.000000, -110.000000)">
            <g id="Payment/Cirrus/Black" transform="translate(157.000000, 110.000000)">
                <g id="Cirrus-dark" stroke-width="1" fill="#363436">
                    <rect id="Rectangle" x="0" y="0" width="50" height="30" rx="3"></rect>
                </g>
                <path d="M28.4384566,16.170464 C28.3576071,16.8509181 28.2071633,17.5102178 27.9944836,18.1410937 L22.4767347,18.1410937 C22.597838,18.4995312 22.7387582,18.8490625 22.8982371,19.188125 L27.5731385,19.188125 C27.4026502,19.549375 27.2110869,19.8989062 26.999392,20.2351562 L23.4718263,20.2351562 C23.7022371,20.6004687 23.9557676,20.9501562 24.2306878,21.2815625 L26.2406878,21.2815625 C25.9319531,21.6545312 25.5956948,22.0048437 25.2356878,22.3285937 C23.4697103,23.9188502 21.1261596,24.8875 18.5548756,24.8875 C13.0585164,24.8875 8.60270188,20.4609375 8.60270188,15.0001562 C8.60270188,9.54 13.0585164,5.113125 18.5548756,5.113125 C21.1261467,5.113125 23.4696868,6.08183346 25.2358981,7.67187135 C24.875838,7.99609375 24.5398944,8.34640625 24.2306878,8.71875 L26.2410023,8.71875 C26.515986,9.05033855 26.7696049,9.40006065 26.9998153,9.76581178 L23.4718263,9.76578125 C23.2606033,10.1020312 23.0685681,10.45125 22.8985516,10.8128125 L27.5731385,10.8128125 C27.7326174,11.151875 27.8736948,11.5009375 27.9944836,11.8592187 L22.4767347,11.8592187 C22.3617653,12.2007812 22.2653545,12.5498437 22.1878169,12.9064062 L28.2832441,12.9064062 C28.397662,13.4332923 28.4701074,13.975601 28.4963915,14.5299141 C28.5038069,14.6857361 28.5075211,14.8425156 28.5075211,15.0001562 C28.5075211,15.3961347 28.4840909,15.786675 28.4385327,16.1704838 Z" id="Combined-Shape" fill="#FFFFFF"></path>
                <path d="M25.2359246,22.3288069 C26.9617866,20.7750911 28.1363914,18.628051 28.4335544,16.2116817 C28.4823496,15.8146116 28.5075211,15.4102945 28.5075211,15.0001562 C28.5075211,14.8205469 28.5026652,14.6420703 28.493091,14.4648389 C28.4008013,12.7450969 27.8660077,11.1419909 26.9998153,9.76581178 C26.7692958,9.39984375 26.5162371,9.05078125 26.2410023,8.71875 C25.9319569,8.34591292 25.5959217,7.99598385 25.2358981,7.67187135 C27.0022153,6.08215178 29.3452758,5.113125 31.9163427,5.113125 C37.4128592,5.113125 41.8686737,9.54 41.8686737,15.0001562 C41.8686737,20.4609375 37.4128592,24.8875 31.9163427,24.8875 C29.3451361,24.8875 27.0021179,23.9186804 25.2359246,22.3288069 Z" id="Combined-Shape" fill="#FFFFFF"></path>
                <path d="M40.5420423,20.51125 C40.5420423,20.335 40.686108,20.1923437 40.8633592,20.1923437 C41.0410822,20.1923437 41.1846761,20.335 41.1846761,20.51125 C41.1846761,20.6876562 41.0410822,20.8307812 40.8633592,20.8307812 C40.686108,20.8307812 40.5420423,20.6876562 40.5420423,20.51125 L40.5420423,20.51125 Z M40.8633592,20.7542187 C40.9986174,20.7542187 41.1077676,20.645625 41.1077676,20.51125 C41.1077676,20.3773437 40.9986174,20.2690625 40.8633592,20.2690625 C40.72873,20.2690625 40.6194225,20.3773437 40.6194225,20.51125 C40.6194225,20.645625 40.72873,20.7542187 40.8633592,20.7542187 L40.8633592,20.7542187 Z M40.820108,20.6514062 L40.7543662,20.6514062 L40.7543662,20.37125 L40.8735822,20.37125 C40.8984319,20.37125 40.9235962,20.37125 40.945615,20.3853125 C40.9684202,20.4007812 40.9813169,20.4276562 40.9813169,20.4551562 C40.9813169,20.4871875 40.9629155,20.516875 40.9327183,20.528125 L40.9843052,20.6514062 L40.9111714,20.6514062 L40.868392,20.540625 L40.820108,20.540625 L40.820108,20.6514062 L40.820108,20.6514062 Z M40.820108,20.4926562 L40.856439,20.4926562 C40.8699648,20.4926562 40.8845915,20.4935937 40.8965446,20.4871875 C40.9073967,20.4801562 40.9130587,20.4673437 40.9130587,20.4548437 C40.9130587,20.4442187 40.9064531,20.4320312 40.8971737,20.42625 C40.8855352,20.4195312 40.8672911,20.42125 40.8551808,20.42125 L40.820108,20.42125 L40.820108,20.4926562 L40.820108,20.4926562 Z" id="Fill-376" fill="#FFFFFF"></path>
                <path d="M37.2025798,17.208125 C37.2025798,17.0317187 37.3464883,16.8885937 37.524054,16.8885937 C37.7014624,16.8885937 37.8455282,17.0317187 37.8455282,17.208125 C37.8455282,17.3845312 37.7014624,17.5273437 37.524054,17.5273437 C37.3464883,17.5273437 37.2025798,17.3845312 37.2025798,17.208125 L37.2025798,17.208125 Z M37.524054,17.4507812 C37.6588404,17.4507812 37.7684624,17.3420312 37.7684624,17.208125 C37.7684624,17.0740625 37.6588404,16.9654687 37.524054,16.9654687 C37.3892676,16.9654687 37.2794883,17.0740625 37.2794883,17.208125 C37.2794883,17.3420312 37.3892676,17.4507812 37.524054,17.4507812 L37.524054,17.4507812 Z M37.4806455,17.348125 L37.4147465,17.348125 L37.4147465,17.0673437 L37.5339624,17.0673437 C37.5586549,17.0673437 37.5842911,17.0679687 37.6059953,17.0820312 C37.6292723,17.0973437 37.6420117,17.1245312 37.6420117,17.151875 C37.6420117,17.18375 37.6234531,17.2132812 37.5930986,17.2245312 L37.645,17.348125 L37.5721808,17.348125 L37.5290869,17.2370312 L37.4806455,17.2370312 L37.4806455,17.348125 L37.4806455,17.348125 Z M37.4806455,17.1889062 L37.5171338,17.1889062 C37.5306596,17.1889062 37.5456009,17.1901562 37.5572394,17.18375 C37.5680915,17.1770312 37.5735962,17.1639062 37.5735962,17.1517187 C37.5735962,17.1409375 37.5668333,17.1284375 37.5580258,17.1226562 C37.5465446,17.11625 37.5278286,17.1178125 37.5154038,17.1178125 L37.4806455,17.1178125 L37.4806455,17.1889062 L37.4806455,17.1889062 Z" id="Fill-383" fill="#363436"></path>
                <path d="M18.2920657,12.4275 C18.2032042,12.8157812 18.156493,13.0354687 18.0363333,13.5071875 C17.2878521,13.1923437 16.2844249,13.0278125 15.514554,13.5051562 C14.7882488,13.964375 14.5428967,14.68125 14.5955845,15.475 C14.6493732,15.8573437 14.937662,16.2303125 15.344223,16.3923437 C16.0486667,16.650625 16.7210258,16.5559375 17.4696643,16.1759375 C17.3631878,16.6542187 17.2828192,17.0295312 17.1898685,17.3714062 C16.292446,17.6201562 15.4400047,17.7021875 14.5428967,17.4057812 C13.7409413,17.12875 13.0891854,16.4115625 13.0360258,15.6373437 C12.8542136,14.3946875 13.4526526,13.1229687 14.6707629,12.5395312 C15.8031573,12.0332812 17.0950305,12.1210937 18.2920657,12.4275" id="Fill-384" fill="#363436"></path>
                <path d="M30.9740962,16.845 C30.7372371,17.0803125 30.3350798,17.5953125 29.2426338,17.5953125 C28.2475423,17.5953125 27.6152887,16.8665625 27.9688474,15.229375 L28.3807559,13.3025 L29.8994225,13.3025 C29.8994225,13.3025 29.4867277,15.2310937 29.4871995,15.229375 C29.3470657,15.8851562 29.3804085,16.3840625 30.0508803,16.3840625 C30.8402535,16.3840625 31.0771127,15.9095312 31.226054,15.229375 C31.2251103,15.230625 31.6385915,13.3025 31.6385915,13.3025 L33.1567864,13.3025 L32.4748333,16.4003125 C32.3974531,16.7634375 32.3236901,17.1482812 32.2807535,17.5282812 L30.8550376,17.5282812 C30.8550376,17.5282812 30.945,17.011875 30.9740962,16.845" id="Fill-385" fill="#363436"></path>
                <path d="M33.6605446,14.63875 C33.6605446,15.1746875 34.0147324,15.5409375 34.8198333,15.814375 C35.441392,16.0301562 35.5387465,16.0935937 35.5387465,16.2809375 C35.5387465,16.5485937 35.2609953,16.6621875 34.6623991,16.6621875 C34.2064531,16.6621875 33.7830634,16.6167187 33.292831,16.4995312 C33.292831,16.4995312 33.1000094,17.375625 33.0801925,17.4760937 C33.5065704,17.5514062 34.2441995,17.5953125 34.6729366,17.5953125 C36.2807793,17.5953125 37.0265869,17.1492187 37.0265869,16.1854687 C37.0265869,15.6089062 36.7140775,15.27 35.9509695,15.01 C35.3077066,14.8 35.2364601,14.7510937 35.2364601,14.5509375 C35.2364601,14.3265625 35.490777,14.2076562 35.9850986,14.2076562 C36.2821948,14.2076562 36.6988216,14.2326562 37.0860376,14.2726562 L37.2991479,13.2920312 C36.9042254,13.2453125 36.3023263,13.2078125 35.955216,13.2078125 C34.2486033,13.2078125 33.6550399,13.860625 33.6605446,14.63875" id="Fill-386" fill="#363436"></path>
                <polyline id="Fill-387" fill="#363436" points="18.9370587 13.3025 20.4604437 13.3025 19.5548427 17.5282812 18.0319296 17.5282812 18.9370587 13.3025"></polyline>
                <path d="M27.9477723,13.2845313 C26.8274883,13.1373438 26.5079014,13.6842188 26.206716,13.9560938 C26.2427324,13.7360938 26.3087887,13.52125 26.2955775,13.3025 L24.9022606,13.3025 C24.7017324,14.6107813 24.3450282,15.9348438 24.0664906,17.24375 L23.9933568,17.5276563 L25.579338,17.5276563 C25.768385,16.6695313 25.9873146,15.3740625 26.2400587,14.9821875 C26.4924883,14.5903125 26.9125751,14.2775 27.463831,14.4657813 L27.9477723,13.2845313" id="Fill-388" fill="#363436"></path>
                <path d="M24.4835892,13.2845313 C23.3631479,13.1373438 23.043561,13.6842188 22.7423756,13.9560938 C22.778392,13.7360938 22.8446056,13.52125 22.8312371,13.3025 L21.4379202,13.3025 C21.237392,14.6107813 20.8810023,15.9348438 20.601993,17.24375 L20.5290164,17.5276563 L22.1148404,17.5276563 C22.3040446,16.6695313 22.5228169,15.3740625 22.7758756,14.9821875 C23.0281479,14.5903125 23.4482347,14.2775 23.9996479,14.4657813 L24.4835892,13.2845313" id="Fill-389" fill="#363436"></path>
            </g>
        </g>
    </g>
</svg>