<?xml version="1.0" encoding="UTF-8"?>
<svg width="50px" height="30px" viewBox="0 0 50 30" version="1.1" xmlns="http://www.w3.org/2000/svg" xmlns:xlink="http://www.w3.org/1999/xlink">
    <!-- Generator: Sketch 49.3 (51167) - http://www.bohemiancoding.com/sketch -->
    <title>icon_payment_mastercard_blue</title>
    <desc>Created with Sketch.</desc>
    <defs></defs>
    <g id="Stylesheets---FrontEnd" stroke="none" stroke-width="1" fill="none" fill-rule="evenodd">
        <g id="Payment-Cards" transform="translate(-92.000000, -192.000000)">
            <g id="Payment/Mastercard/Blue" transform="translate(92.000000, 192.000000)">
                <g id="MasterCard-dark">
                    <rect id="Rectangle" fill="#2E556D" x="0" y="0" width="50" height="30" rx="2.4"></rect>
                    <path d="M28.4384566,16.170464 C28.3576071,16.8509181 28.2071633,17.5102178 27.9944836,18.1410937 L22.4767347,18.1410937 C22.597838,18.4995312 22.7387582,18.8490625 22.8982371,19.188125 L27.5731385,19.188125 C27.4026502,19.549375 27.2110869,19.8989062 26.999392,20.2351562 L23.4718263,20.2351562 C23.7022371,20.6004687 23.9557676,20.9501562 24.2306878,21.2815625 L26.2406878,21.2815625 C25.9319531,21.6545312 25.5956948,22.0048437 25.2356878,22.3285937 C23.4697103,23.9188502 21.1261596,24.8875 18.5548756,24.8875 C13.0585164,24.8875 8.60270188,20.4609375 8.60270188,15.0001562 C8.60270188,9.54 13.0585164,5.113125 18.5548756,5.113125 C21.1261467,5.113125 23.4696868,6.08183346 25.2358981,7.67187135 C24.875838,7.99609375 24.5398944,8.34640625 24.2306878,8.71875 L26.2410023,8.71875 C26.515986,9.05033855 26.7696049,9.40006065 26.9998153,9.76581178 L23.4718263,9.76578125 C23.2606033,10.1020312 23.0685681,10.45125 22.8985516,10.8128125 L27.5731385,10.8128125 C27.7326174,11.151875 27.8736948,11.5009375 27.9944836,11.8592187 L22.4767347,11.8592187 C22.3617653,12.2007812 22.2653545,12.5498437 22.1878169,12.9064062 L28.2832441,12.9064062 C28.397662,13.4332923 28.4701074,13.975601 28.4963915,14.5299141 C28.5038069,14.6857361 28.5075211,14.8425156 28.5075211,15.0001562 C28.5075211,15.3961347 28.4840909,15.786675 28.4385327,16.1704838 Z" id="Combined-Shape" fill="#FFFFFF"></path>
                    <path d="M25.2359246,22.3288069 C26.9617866,20.7750911 28.1363914,18.628051 28.4335544,16.2116817 C28.4823496,15.8146116 28.5075211,15.4102945 28.5075211,15.0001562 C28.5075211,14.8205469 28.5026652,14.6420703 28.493091,14.4648389 C28.4008013,12.7450969 27.8660077,11.1419909 26.9998153,9.76581178 C26.7692958,9.39984375 26.5162371,9.05078125 26.2410023,8.71875 C25.9319569,8.34591292 25.5959217,7.99598385 25.2358981,7.67187135 C27.0022153,6.08215178 29.3452758,5.113125 31.9163427,5.113125 C37.4128592,5.113125 41.8686737,9.54 41.8686737,15.0001562 C41.8686737,20.4609375 37.4128592,24.8875 31.9163427,24.8875 C29.3451361,24.8875 27.0021179,23.9186804 25.2359246,22.3288069 Z" id="Combined-Shape" fill="#FFFFFF"></path>
                    <polyline id="Fill-344" fill="#2E556D" points="13.7246569 17.8107441 12.6654587 17.8107441 13.2725432 14.0063273 11.9175898 17.8107441 11.1954723 17.8107441 11.1063448 14.0283779 10.4684204 17.8107441 9.47691582 17.8107441 10.3051228 12.8618566 11.8284623 12.8618566 11.8710215 15.9254977 12.8989171 12.8618566 14.5440745 12.8618566 13.7246569 17.8107441"></polyline>
                    <path d="M16.3332545,16.0178633 C16.2222306,16.0049105 16.1731951,16.0013639 16.0968662,16.0013639 C15.4964123,16.0013639 15.1926387,16.2070664 15.1926387,16.6136912 C15.1926387,16.8639575 15.3409789,17.024171 15.5724328,17.024171 C16.0038837,17.024171 16.3149047,16.6133828 16.3332545,16.0178633 L16.3332545,16.0178633 Z M17.1036365,17.8107441 L16.2260856,17.8107441 L16.2461316,17.3939421 C15.9784408,17.7231586 15.6211599,17.8805966 15.1358932,17.8805966 C14.5618075,17.8805966 14.1682897,17.4318752 14.1682897,16.7808438 C14.1682897,15.8004416 14.8529366,15.2295941 16.0280931,15.2295941 C16.1482147,15.2295941 16.3021061,15.2405423 16.4598525,15.2608966 C16.4925428,15.127668 16.501178,15.0710767 16.501178,14.9990654 C16.501178,14.7327624 16.3167551,14.633612 15.821928,14.633612 C15.3035084,14.627444 14.8762208,14.7565092 14.7004331,14.8140257 C14.7116897,14.7474114 14.8473855,13.9090273 14.8473855,13.9090273 C15.3752113,13.7542107 15.7233944,13.695769 16.115216,13.695769 C17.0248404,13.695769 17.5065605,14.1045526 17.5057895,14.8761682 C17.5074857,15.0829501 17.4734076,15.3387675 17.4200544,15.6736894 C17.3279972,16.256102 17.1306215,17.5069705 17.1036365,17.8107441 L17.1036365,17.8107441 Z" id="Fill-345" fill="#2E556D"></path>
                    <path d="M31.3117576,12.9950852 L31.1382829,14.0690866 C30.7600309,13.8789583 30.4860179,13.8020126 30.1921131,13.8020126 C29.4012225,13.8020126 28.8464117,14.5663809 28.8464117,15.6565733 C28.8464117,16.4076803 29.2192667,16.8614903 29.8351406,16.8614903 C30.0960466,16.8614903 30.384246,16.7808438 30.7347421,16.6076774 L30.548623,17.7354946 C30.1586517,17.8417382 29.9062267,17.8805966 29.6126304,17.8805966 C28.4720146,17.8805966 27.7616163,17.0605622 27.7616163,15.7438503 C27.7616163,13.9745622 28.7437146,12.7380342 30.1475494,12.7380342 C30.6101487,12.7380342 31.1564785,12.9340221 31.3117576,12.9950852" id="Fill-346" fill="#2E556D"></path>
                    <path d="M33.0205995,16.0178633 C32.9101925,16.0049105 32.8610027,16.0013639 32.784828,16.0013639 C32.1846825,16.0013639 31.8807548,16.2070664 31.8807548,16.6136912 C31.8807548,16.8639575 32.0289408,17.024171 32.2602404,17.024171 C32.6915372,17.024171 33.0028665,16.6133828 33.0205995,16.0178633 L33.0205995,16.0178633 Z M33.7915984,17.8107441 L32.9140475,17.8107441 L32.9339392,17.3939421 C32.6662484,17.7231586 32.3089676,17.8805966 31.8241635,17.8805966 C31.2494609,17.8805966 30.8564057,17.4318752 30.8564057,16.7808438 C30.8564057,15.8004416 31.5404359,15.2295941 32.7159008,15.2295941 C32.8360224,15.2295941 32.9896053,15.2405423 33.1471975,15.2608966 C33.1800421,15.127668 33.1886772,15.0710767 33.1886772,14.9990654 C33.1886772,14.7327624 33.0047169,14.633612 32.5095815,14.633612 C31.9916244,14.627444 31.5644911,14.7565092 31.3883949,14.8140257 C31.3994973,14.7474114 31.5353473,13.9090273 31.5353473,13.9090273 C32.0631731,13.7542107 32.4110478,13.695769 32.8028694,13.695769 C33.7124939,13.695769 34.1946766,14.1045526 34.193443,14.8761682 C34.1956018,15.0829501 34.1612152,15.3387675 34.1078621,15.6736894 C34.0161132,16.256102 33.8187375,17.5069705 33.7915984,17.8107441 L33.7915984,17.8107441 Z" id="Fill-347" fill="#2E556D"></path>
                    <path d="M21.8113555,17.749681 C21.5216142,17.8409672 21.2954031,17.8805966 21.0505339,17.8805966 C20.5089843,17.8805966 20.2132291,17.5692672 20.2132291,16.9967235 C20.2058275,16.8181601 20.2914084,16.3509348 20.3587937,15.9236473 C20.4197026,15.5472456 20.8180006,13.1768867 20.8180006,13.1768867 L21.8710308,13.1768867 L21.7478252,13.7859758 L22.2884496,13.7859758 L22.144427,14.7531168 L21.6021064,14.7531168 C21.479826,15.5191813 21.3054261,16.4721359 21.3032673,16.5985797 C21.3032673,16.8067494 21.4144453,16.896802 21.6662535,16.896802 C21.786992,16.896802 21.8802828,16.8849286 21.9519857,16.8587147 L21.8113555,17.749681" id="Fill-348" fill="#2E556D"></path>
                    <path d="M25.0402987,17.7177616 C24.6783919,17.8286312 24.3289752,17.880905 23.9595125,17.8805966 C22.7805011,17.8798256 22.1664776,17.2637975 22.1664776,16.0850944 C22.1664776,14.7088615 22.947962,13.695769 24.0085481,13.695769 C24.8774638,13.695769 25.431812,14.2629157 25.431812,15.153111 C25.431812,15.4480952 25.393262,15.7359861 25.3022841,16.1426109 L23.2051673,16.1426109 C23.1340812,16.7265655 23.5080156,16.9702011 24.1203429,16.9702011 C24.4970529,16.9702011 24.8370634,16.892176 25.2154697,16.7163883 L25.0402987,17.7177616 L25.0402987,17.7177616 Z M24.4483258,15.3309033 C24.4540312,15.2467103 24.5599664,14.6124866 23.9582789,14.6124866 C23.6230486,14.6124866 23.3829596,14.8686124 23.2853511,15.3309033 L24.4483258,15.3309033 L24.4483258,15.3309033 Z" id="Fill-349" fill="#2E556D"></path>
                    <path d="M17.7389396,15.0582781 C17.7389396,15.5679084 17.9859676,15.9182503 18.545867,16.1823945 C18.9746965,16.3840878 19.0411566,16.4437631 19.0411566,16.626644 C19.0411566,16.877527 18.8519535,16.9907097 18.4326843,16.9907097 C18.116729,16.9907097 17.82267,16.9416742 17.4834305,16.8323465 C17.4834305,16.8323465 17.3446508,17.7193036 17.3381744,17.7610917 C17.578726,17.8138281 17.7935263,17.8619384 18.4402401,17.8805966 C19.5581885,17.8805966 20.0744493,17.4551594 20.0744493,16.5353578 C20.0744493,15.982089 19.8582612,15.6576527 19.3276598,15.414017 C18.8835645,15.2097023 18.8325243,15.1645218 18.8325243,14.9763981 C18.8325243,14.7588222 19.0086205,14.6468732 19.3510982,14.6468732 C19.5586511,14.6468732 19.8428412,14.6700031 20.112074,14.7079363 L20.2628814,13.7745651 C19.98856,13.7312349 19.5728374,13.695769 19.3305896,13.695769 C18.1454102,13.695769 17.735393,14.3147269 17.7389396,15.0582781" id="Fill-350" fill="#2E556D"></path>
                    <path d="M39.398302,17.8107441 L38.3963119,17.8107441 L38.4459643,17.4361928 C38.1552977,17.746597 37.8575379,17.8805966 37.4692629,17.8805966 C36.6994976,17.8805966 36.1901758,17.2172291 36.1901758,16.2103046 C36.1901758,14.8715422 36.9798328,13.7431083 37.9138208,13.7431083 C38.324609,13.7431083 38.63563,13.9108776 38.9253713,14.2920595 L39.1603718,12.8618566 L40.2050752,12.8618566 L39.398302,17.8107441 L39.398302,17.8107441 Z M37.8354874,16.8807652 C38.3290808,16.8807652 38.6754135,16.3217911 38.6754135,15.5245783 C38.6754135,15.0130976 38.478192,14.7352296 38.1141263,14.7352296 C37.6336399,14.7352296 37.29255,15.2962084 37.29255,16.0877158 C37.29255,16.6144622 37.4752767,16.8807652 37.8354874,16.8807652 L37.8354874,16.8807652 Z" id="Fill-351" fill="#2E556D"></path>
                    <path d="M34.7457865,13.7859758 C34.6133289,15.0317558 34.3777117,16.2934183 34.193443,17.5401235 L34.1451784,17.8107441 L35.2046851,17.8107441 C35.5837081,15.3494073 35.6748402,14.869075 36.2694345,14.9290587 C36.3639589,14.4252881 36.5402093,13.9841225 36.6714333,13.7617665 C36.2278005,13.6692466 35.9800015,13.9199754 35.6552568,14.3964527 C35.6811624,14.1902876 35.7278849,13.9902905 35.7190955,13.7859758 L34.7457865,13.7859758" id="Fill-352" fill="#2E556D"></path>
                    <path d="M26.0259437,13.7859758 C25.8928693,15.0317558 25.6569436,16.2934183 25.4729833,17.5401235 L25.424873,17.8107441 L26.484688,17.8107441 C26.8638652,15.3494073 26.9546889,14.869075 27.548358,14.9290587 C27.6434993,14.4252881 27.820058,13.9841225 27.9509736,13.7617665 C27.5078035,13.6692466 27.2595418,13.9199754 26.9354139,14.3964527 C26.9610111,14.1902876 27.008042,13.9902905 26.99879,13.7859758 L26.0259437,13.7859758" id="Fill-353" fill="#2E556D"></path>
                </g>
            </g>
        </g>
    </g>
</svg>